<?xml version="1.0" encoding="UTF-8" standalone="no"?>
<svg
   xmlns:dc="http://purl.org/dc/elements/1.1/"
   xmlns:cc="http://creativecommons.org/ns#"
   xmlns:rdf="http://www.w3.org/1999/02/22-rdf-syntax-ns#"
   xmlns:svg="http://www.w3.org/2000/svg"
   xmlns="http://www.w3.org/2000/svg"
   xmlns:sodipodi="http://sodipodi.sourceforge.net/DTD/sodipodi-0.dtd"
   xmlns:inkscape="http://www.inkscape.org/namespaces/inkscape"
   version="1.1"
   x="0px"
   y="0px"
   viewBox="0 0 100 125"
   enable-background="new 0 0 100 100"
   xml:space="preserve"
   id="svg52"
   sodipodi:docname="dead.svg"
   inkscape:version="0.92.2 2405546, 2018-03-11"><metadata
     id="metadata58"><rdf:RDF><cc:Work
         rdf:about=""><dc:format>image/svg+xml</dc:format><dc:type
           rdf:resource="http://purl.org/dc/dcmitype/StillImage" /></cc:Work></rdf:RDF></metadata><defs
     id="defs56" /><sodipodi:namedview
     pagecolor="#ffffff"
     bordercolor="#666666"
     borderopacity="1"
     objecttolerance="10"
     gridtolerance="10"
     guidetolerance="10"
     inkscape:pageopacity="0"
     inkscape:pageshadow="2"
     inkscape:window-width="640"
     inkscape:window-height="480"
     id="namedview54"
     showgrid="false"
     inkscape:zoom="1.888"
     inkscape:cx="50"
     inkscape:cy="62.5"
     inkscape:window-x="0"
     inkscape:window-y="30"
     inkscape:window-maximized="0"
     inkscape:current-layer="svg52" /><g
     id="g4"><circle
       cx="37.996"
       cy="58.819"
       r="4.172"
       id="circle2" /></g><g
     id="g8"><circle
       cx="62.668"
       cy="58.819"
       r="4.172"
       id="circle6" /></g><g
     id="g18"><g
       id="g12"><path
         d="M68.447,53.214c-0.155,0-0.312-0.029-0.464-0.09L58.7,49.411c-0.642-0.256-0.953-0.984-0.696-1.625    c0.257-0.642,0.985-0.952,1.624-0.696l9.283,3.713c0.642,0.256,0.953,0.984,0.696,1.625    C69.412,52.917,68.943,53.214,68.447,53.214z"
         id="path10" /></g><g
       id="g16"><path
         d="M31.553,53.214c-0.496,0-0.965-0.297-1.16-0.786c-0.257-0.641,0.055-1.369,0.696-1.625l9.283-3.713    c0.639-0.256,1.367,0.055,1.624,0.696c0.257,0.641-0.055,1.369-0.696,1.625l-9.283,3.713    C31.864,53.185,31.708,53.214,31.553,53.214z"
         id="path14" /></g></g><g
     id="g40"><g
       id="g22"><path
         d="M37.429,81.418c-0.525,0-1.035-0.277-1.311-0.769c-0.404-0.723-0.146-1.637,0.578-2.041l5-2.795    c0.723-0.403,1.636-0.146,2.041,0.578c0.404,0.723,0.146,1.637-0.578,2.041l-5,2.795C37.928,81.356,37.677,81.418,37.429,81.418z"
         id="path20" /></g><g
       id="g26"><path
         d="M48.095,81.418c-0.525,0-1.035-0.277-1.311-0.769c-0.404-0.723-0.146-1.637,0.578-2.041l5-2.795    c0.722-0.403,1.636-0.146,2.041,0.578c0.404,0.723,0.146,1.637-0.578,2.041l-5,2.795C48.594,81.356,48.343,81.418,48.095,81.418z"
         id="path24" /></g><g
       id="g30"><path
         d="M59.095,81.623c-0.512,0-1.01-0.262-1.29-0.733c-0.424-0.712-0.189-1.633,0.522-2.056l5-2.972    c0.712-0.422,1.633-0.188,2.056,0.523c0.424,0.712,0.189,1.633-0.522,2.056l-5,2.972C59.62,81.555,59.355,81.623,59.095,81.623z"
         id="path28" /></g><g
       id="g34"><path
         d="M47.759,81.418c-0.248,0-0.499-0.062-0.73-0.191l-5-2.795c-0.724-0.404-0.982-1.318-0.578-2.041    c0.406-0.723,1.32-0.98,2.041-0.578l5,2.795c0.724,0.404,0.982,1.318,0.578,2.041C48.794,81.141,48.284,81.418,47.759,81.418z"
         id="path32" /></g><g
       id="g38"><path
         d="M58.427,81.418c-0.248,0-0.499-0.062-0.73-0.191l-5-2.795c-0.724-0.404-0.982-1.318-0.578-2.041    c0.405-0.723,1.319-0.98,2.041-0.578l5,2.795c0.724,0.404,0.982,1.318,0.578,2.041C59.462,81.141,58.952,81.418,58.427,81.418z"
         id="path36" /></g></g><g
     id="g44"><path
       d="M49.962,99.364l-0.306-0.042c-0.602-0.084-14.851-2.221-24.929-16.891c-5.479-7.976-8.397-20.656-8.397-26.744   c0-0.292,0.002-29.369,0.004-29.576l0.022-2.063l2.03-0.37c0.587-0.107,14.576-2.618,31.614-2.618   c16.96,0,30.994,2.374,31.583,2.475l2.027,0.348l0.049,2.057c0.007,0.294,0.01,29.454,0.01,29.747   c0,6.111-3.64,19.083-8.333,26.646c-9.4,15.15-24.434,16.93-25.068,16.998L49.962,99.364z M21.333,28.263   c-0.002,6.725-0.003,27.27-0.003,27.424c0,5.3,2.678,16.866,7.519,23.913c8.078,11.757,19.229,14.344,21.196,14.717   c2.102-0.32,13.575-2.583,21.044-14.62c4.083-6.581,7.581-18.702,7.581-24.01c0-0.242-0.002-20.79-0.006-27.542   c-4.516-0.654-15.859-2.083-28.663-2.083C37.143,26.061,25.822,27.574,21.333,28.263z"
       id="path42" /></g><path
     d="M83.828,19.434l-0.167-2.251l-2.239-0.233c-6.444-0.671-16.089-1.456-26.917-1.61l1.697-3.348l-4.282,0.181  c-18.779,0.795-33.069,3.93-33.668,4.062l-1.961,0.427l-0.121,1.965C16.168,18.776,16,24.891,16,43.19v3.586l3.347-0.905  c8.209-2.333,15.889-6.876,22.394-13.109c9.563,6.501,21.873,10.241,35.017,10.241c1.391,0,3.013-0.055,4.747-0.172L84,42.674  v-2.337C84,33.54,83.832,22.979,83.828,19.434z"
     id="path46" /></svg>