<?xml version="1.0" encoding="UTF-8" standalone="no"?>
<svg
   xmlns:dc="http://purl.org/dc/elements/1.1/"
   xmlns:cc="http://creativecommons.org/ns#"
   xmlns:rdf="http://www.w3.org/1999/02/22-rdf-syntax-ns#"
   xmlns:svg="http://www.w3.org/2000/svg"
   xmlns="http://www.w3.org/2000/svg"
   xmlns:sodipodi="http://sodipodi.sourceforge.net/DTD/sodipodi-0.dtd"
   xmlns:inkscape="http://www.inkscape.org/namespaces/inkscape"
   version="1.1"
   x="0px"
   y="0px"
   viewBox="0 0 100 125"
   enable-background="new 0 0 100 100"
   xml:space="preserve"
   id="svg32"
   sodipodi:docname="noun_disappointed_215505.svg"
   inkscape:version="0.92.2 2405546, 2018-03-11"><metadata
     id="metadata38"><rdf:RDF><cc:Work
         rdf:about=""><dc:format>image/svg+xml</dc:format><dc:type
           rdf:resource="http://purl.org/dc/dcmitype/StillImage" /></cc:Work></rdf:RDF></metadata><defs
     id="defs36" /><sodipodi:namedview
     pagecolor="#ffffff"
     bordercolor="#666666"
     borderopacity="1"
     objecttolerance="10"
     gridtolerance="10"
     guidetolerance="10"
     inkscape:pageopacity="0"
     inkscape:pageshadow="2"
     inkscape:window-width="640"
     inkscape:window-height="480"
     id="namedview34"
     showgrid="false"
     inkscape:zoom="1.888"
     inkscape:cx="50"
     inkscape:cy="62.5"
     inkscape:window-x="0"
     inkscape:window-y="30"
     inkscape:window-maximized="0"
     inkscape:current-layer="svg32" /><g
     id="g4"><circle
       cx="37.997"
       cy="58.82"
       r="4.172"
       id="circle2" /></g><g
     id="g8"><circle
       cx="62.668"
       cy="58.82"
       r="4.172"
       id="circle6" /></g><g
     id="g12"><path
       d="M62.22,83.476c-0.586,0-1.167-0.256-1.562-0.749c-2.524-3.148-6.293-4.954-10.341-4.954c-4.029,0-7.786,1.806-10.308,4.954   c-0.691,0.862-1.949,1-2.812,0.311c-0.862-0.691-1.001-1.949-0.311-2.812c3.285-4.101,8.181-6.453,13.43-6.453   c5.269,0,10.175,2.352,13.462,6.452c0.691,0.862,0.552,2.121-0.31,2.812C63.1,83.332,62.658,83.476,62.22,83.476z"
       id="path10" /></g><g
     id="g16"><path
       d="M68.779,53.214c-0.154,0-0.312-0.029-0.464-0.09l-9.283-3.713c-0.641-0.256-0.953-0.984-0.696-1.625   c0.256-0.641,0.984-0.953,1.625-0.696l9.283,3.713c0.641,0.256,0.953,0.984,0.696,1.625C69.745,52.917,69.275,53.214,68.779,53.214   z"
       id="path14" /></g><g
     id="g20"><path
       d="M31.886,53.214c-0.496,0-0.966-0.297-1.161-0.786c-0.256-0.641,0.056-1.369,0.696-1.625l9.283-3.713   c0.641-0.258,1.369,0.055,1.625,0.696s-0.056,1.369-0.696,1.625l-9.283,3.713C32.197,53.186,32.04,53.214,31.886,53.214z"
       id="path18" /></g><g
     id="g24"><path
       d="M49.961,99.364l-0.305-0.042c-0.602-0.084-14.85-2.221-24.929-16.891c-5.479-7.976-8.397-20.656-8.397-26.744   c0-0.293,0.001-29.373,0.005-29.589l0.033-2.052l2.019-0.367c0.587-0.107,14.575-2.618,31.614-2.618   c16.96,0,30.994,2.374,31.583,2.475l2.028,0.348l0.049,2.057c0.007,0.294,0.009,29.454,0.009,29.747   c0,6.111-3.64,19.083-8.333,26.646c-9.401,15.15-24.434,16.93-25.069,16.998L49.961,99.364z M21.333,28.263   c-0.002,6.695-0.003,27.182-0.003,27.424c0,5.3,2.677,16.866,7.519,23.913c8.078,11.757,19.229,14.344,21.196,14.717   c2.102-0.32,13.575-2.583,21.043-14.62c4.083-6.581,7.582-18.702,7.582-24.01c0-0.242-0.002-20.79-0.006-27.542   c-4.516-0.654-15.858-2.083-28.663-2.083C37.125,26.061,25.817,27.574,21.333,28.263z"
       id="path22" /></g><path
     d="M83.829,19.434l-0.167-2.251l-2.239-0.233c-6.444-0.671-16.089-1.456-26.917-1.61l1.698-3.348l-4.283,0.181  c-18.778,0.795-33.07,3.93-33.668,4.062l-1.966,0.428l-0.115,1.972C16.168,18.781,16,24.881,16,43.137v3.64l3.346-0.905  c8.208-2.333,15.889-6.876,22.394-13.109c9.562,6.501,21.873,10.241,35.017,10.241c1.391,0,3.012-0.055,4.746-0.172L84,42.674  v-2.337C84,33.54,83.832,22.979,83.829,19.434z"
     id="path26" /></svg>