<?xml version="1.0" encoding="UTF-8" standalone="no"?>
<svg
   xmlns:dc="http://purl.org/dc/elements/1.1/"
   xmlns:cc="http://creativecommons.org/ns#"
   xmlns:rdf="http://www.w3.org/1999/02/22-rdf-syntax-ns#"
   xmlns:svg="http://www.w3.org/2000/svg"
   xmlns="http://www.w3.org/2000/svg"
   xmlns:sodipodi="http://sodipodi.sourceforge.net/DTD/sodipodi-0.dtd"
   xmlns:inkscape="http://www.inkscape.org/namespaces/inkscape"
   version="1.1"
   x="0px"
   y="0px"
   viewBox="0 0 100 125"
   enable-background="new 0 0 100 100"
   xml:space="preserve"
   id="svg24"
   sodipodi:docname="noun_Neutral_215506.svg"
   inkscape:version="0.92.2 2405546, 2018-03-11"><metadata
     id="metadata30"><rdf:RDF><cc:Work
         rdf:about=""><dc:format>image/svg+xml</dc:format><dc:type
           rdf:resource="http://purl.org/dc/dcmitype/StillImage" /></cc:Work></rdf:RDF></metadata><defs
     id="defs28" /><sodipodi:namedview
     pagecolor="#ffffff"
     bordercolor="#666666"
     borderopacity="1"
     objecttolerance="10"
     gridtolerance="10"
     guidetolerance="10"
     inkscape:pageopacity="0"
     inkscape:pageshadow="2"
     inkscape:window-width="640"
     inkscape:window-height="480"
     id="namedview26"
     showgrid="false"
     inkscape:zoom="1.888"
     inkscape:cx="50"
     inkscape:cy="62.5"
     inkscape:window-x="0"
     inkscape:window-y="30"
     inkscape:window-maximized="0"
     inkscape:current-layer="svg24" /><g
     id="g4"><circle
       cx="37.997"
       cy="58.82"
       r="4.172"
       id="circle2" /></g><g
     id="g8"><circle
       cx="62.668"
       cy="58.82"
       r="4.172"
       id="circle6" /></g><g
     id="g12"><path
       d="M62,81.001H39c-1.104,0-2-0.896-2-2s0.896-2,2-2h23c1.104,0,2,0.896,2,2S63.105,81.001,62,81.001z"
       id="path10" /></g><g
     id="g16"><path
       d="M49.961,99.364l-0.305-0.042c-0.602-0.084-14.85-2.221-24.929-16.891c-5.479-7.976-8.397-20.656-8.397-26.744   c0-0.293,0.001-29.373,0.005-29.589l0.033-2.052l2.019-0.367c0.587-0.107,14.575-2.618,31.614-2.618   c16.96,0,30.994,2.374,31.583,2.475l2.028,0.348l0.049,2.057c0.007,0.294,0.009,29.454,0.009,29.747   c0,6.111-3.64,19.083-8.333,26.646c-9.401,15.15-24.434,16.93-25.069,16.998L49.961,99.364z M21.333,28.263   c-0.002,6.695-0.003,27.182-0.003,27.424c0,5.3,2.677,16.866,7.519,23.913c8.078,11.757,19.229,14.344,21.196,14.717   c2.102-0.32,13.575-2.583,21.043-14.62c4.083-6.581,7.582-18.702,7.582-24.01c0-0.242-0.002-20.79-0.006-27.542   c-4.516-0.654-15.858-2.083-28.663-2.083C37.125,26.061,25.817,27.574,21.333,28.263z"
       id="path14" /></g><path
     d="M83.829,19.434l-0.167-2.251l-2.239-0.233c-6.444-0.671-16.089-1.456-26.917-1.61l1.698-3.348l-4.283,0.181  c-18.778,0.795-33.07,3.93-33.668,4.062l-1.966,0.428l-0.115,1.972C16.168,18.781,16,24.881,16,43.137v3.64l3.346-0.905  c8.208-2.333,15.889-6.876,22.394-13.109c9.562,6.501,21.873,10.241,35.017,10.241c1.391,0,3.012-0.055,4.746-0.172L84,42.674  v-2.337C84,33.54,83.832,22.979,83.829,19.434z"
     id="path18" /></svg>