<?xml version="1.0" encoding="UTF-8" standalone="no"?>
<!-- Created with Inkscape (http://www.inkscape.org/) -->

<svg
   xmlns:dc="http://purl.org/dc/elements/1.1/"
   xmlns:cc="http://creativecommons.org/ns#"
   xmlns:rdf="http://www.w3.org/1999/02/22-rdf-syntax-ns#"
   xmlns:svg="http://www.w3.org/2000/svg"
   xmlns="http://www.w3.org/2000/svg"
   xmlns:sodipodi="http://sodipodi.sourceforge.net/DTD/sodipodi-0.dtd"
   xmlns:inkscape="http://www.inkscape.org/namespaces/inkscape"
   version="1.1"
   id="svg2"
   xml:space="preserve"
   width="793.76001"
   height="1122.5601"
   viewBox="0 0 793.76001 1122.5601"
   sodipodi:docname="strikeFlowChart.svg"
   inkscape:version="0.92.2 2405546, 2018-03-11"><metadata
     id="metadata8"><rdf:RDF><cc:Work
         rdf:about=""><dc:format>image/svg+xml</dc:format><dc:type
           rdf:resource="http://purl.org/dc/dcmitype/StillImage" /><dc:title></dc:title></cc:Work></rdf:RDF></metadata><defs
     id="defs6"><clipPath
       clipPathUnits="userSpaceOnUse"
       id="clipPath18"><path
         d="M 8.871e-6,0 H 595.32001 V 841.92 H 8.871e-6 Z"
         id="path16"
         inkscape:connector-curvature="0"
         style="clip-rule:evenodd" /></clipPath><clipPath
       clipPathUnits="userSpaceOnUse"
       id="clipPath26"><path
         d="M 8.871e-6,0 H 595.32001 V 841.92 H 8.871e-6 Z"
         id="path24"
         inkscape:connector-curvature="0"
         style="clip-rule:evenodd" /></clipPath><clipPath
       clipPathUnits="userSpaceOnUse"
       id="clipPath48"><path
         d="m 183.26,709.36 h 226.6 v 56.6 h -226.6 z"
         id="path46"
         inkscape:connector-curvature="0"
         style="clip-rule:evenodd" /></clipPath><clipPath
       clipPathUnits="userSpaceOnUse"
       id="clipPath60"><path
         d="m 183.26,709.36 h 226.6 v 56.6 h -226.6 z"
         id="path58"
         inkscape:connector-curvature="0"
         style="clip-rule:evenodd" /></clipPath><clipPath
       clipPathUnits="userSpaceOnUse"
       id="clipPath68"><path
         d="m 183.26,709.36 h 226.6 v 56.6 h -226.6 z"
         id="path66"
         inkscape:connector-curvature="0"
         style="clip-rule:evenodd" /></clipPath><clipPath
       clipPathUnits="userSpaceOnUse"
       id="clipPath80"><path
         d="m 183.26,709.36 h 226.6 v 56.6 h -226.6 z"
         id="path78"
         inkscape:connector-curvature="0"
         style="clip-rule:evenodd" /></clipPath><clipPath
       clipPathUnits="userSpaceOnUse"
       id="clipPath88"><path
         d="m 480.96,398.84 h 74.28 v 36.02 h -74.28 z"
         id="path86"
         inkscape:connector-curvature="0"
         style="clip-rule:evenodd" /></clipPath><clipPath
       clipPathUnits="userSpaceOnUse"
       id="clipPath100"><path
         d="m 480.96,398.84 h 74.28 v 36.02 h -74.28 z"
         id="path98"
         inkscape:connector-curvature="0"
         style="clip-rule:evenodd" /></clipPath><clipPath
       clipPathUnits="userSpaceOnUse"
       id="clipPath108"><path
         d="M 419.64,416.48 H 451.2 V 452.5 H 419.64 Z"
         id="path106"
         inkscape:connector-curvature="0"
         style="clip-rule:evenodd" /></clipPath><clipPath
       clipPathUnits="userSpaceOnUse"
       id="clipPath120"><path
         d="M 419.64,416.48 H 451.2 V 452.5 H 419.64 Z"
         id="path118"
         inkscape:connector-curvature="0"
         style="clip-rule:evenodd" /></clipPath><clipPath
       clipPathUnits="userSpaceOnUse"
       id="clipPath132"><path
         d="m 208.04,508.72 h 177.8 v 36 h -177.8 z"
         id="path130"
         inkscape:connector-curvature="0"
         style="clip-rule:evenodd" /></clipPath><clipPath
       clipPathUnits="userSpaceOnUse"
       id="clipPath144"><path
         d="m 208.04,508.72 h 177.8 v 36 h -177.8 z"
         id="path142"
         inkscape:connector-curvature="0"
         style="clip-rule:evenodd" /></clipPath><clipPath
       clipPathUnits="userSpaceOnUse"
       id="clipPath156"><path
         d="m 208.04,508.72 h 177.8 v 36 h -177.8 z"
         id="path154"
         inkscape:connector-curvature="0"
         style="clip-rule:evenodd" /></clipPath><clipPath
       clipPathUnits="userSpaceOnUse"
       id="clipPath168"><path
         d="m 208.04,508.72 h 177.8 v 36 h -177.8 z"
         id="path166"
         inkscape:connector-curvature="0"
         style="clip-rule:evenodd" /></clipPath><clipPath
       clipPathUnits="userSpaceOnUse"
       id="clipPath186"><path
         d="m 172.04,404.84 h 251.32 v 30.38 H 172.04 Z"
         id="path184"
         inkscape:connector-curvature="0"
         style="clip-rule:evenodd" /></clipPath><clipPath
       clipPathUnits="userSpaceOnUse"
       id="clipPath198"><path
         d="m 172.04,404.84 h 251.32 v 30.38 H 172.04 Z"
         id="path196"
         inkscape:connector-curvature="0"
         style="clip-rule:evenodd" /></clipPath><clipPath
       clipPathUnits="userSpaceOnUse"
       id="clipPath210"><path
         d="m 172.04,404.84 h 251.32 v 30.38 H 172.04 Z"
         id="path208"
         inkscape:connector-curvature="0"
         style="clip-rule:evenodd" /></clipPath><clipPath
       clipPathUnits="userSpaceOnUse"
       id="clipPath218"><path
         d="m 172.04,404.84 h 251.32 v 30.38 H 172.04 Z"
         id="path216"
         inkscape:connector-curvature="0"
         style="clip-rule:evenodd" /></clipPath><clipPath
       clipPathUnits="userSpaceOnUse"
       id="clipPath228"><path
         d="m 306.4,339.2 h 144.44 v 36 H 306.4 Z"
         id="path226"
         inkscape:connector-curvature="0"
         style="clip-rule:evenodd" /></clipPath><clipPath
       clipPathUnits="userSpaceOnUse"
       id="clipPath240"><path
         d="m 306.4,339.2 h 144.44 v 36 H 306.4 Z"
         id="path238"
         inkscape:connector-curvature="0"
         style="clip-rule:evenodd" /></clipPath><clipPath
       clipPathUnits="userSpaceOnUse"
       id="clipPath252"><path
         d="m 306.4,339.2 h 144.44 v 36 H 306.4 Z"
         id="path250"
         inkscape:connector-curvature="0"
         style="clip-rule:evenodd" /></clipPath><clipPath
       clipPathUnits="userSpaceOnUse"
       id="clipPath264"><path
         d="m 214.94,288.8 h 163.52 v 36 H 214.94 Z"
         id="path262"
         inkscape:connector-curvature="0"
         style="clip-rule:evenodd" /></clipPath><clipPath
       clipPathUnits="userSpaceOnUse"
       id="clipPath276"><path
         d="m 214.94,288.8 h 163.52 v 36 H 214.94 Z"
         id="path274"
         inkscape:connector-curvature="0"
         style="clip-rule:evenodd" /></clipPath><clipPath
       clipPathUnits="userSpaceOnUse"
       id="clipPath288"><path
         d="m 183.26,599.08 h 226.6 v 53.64 h -226.6 z"
         id="path286"
         inkscape:connector-curvature="0"
         style="clip-rule:evenodd" /></clipPath><clipPath
       clipPathUnits="userSpaceOnUse"
       id="clipPath300"><path
         d="m 183.26,599.08 h 226.6 v 53.64 h -226.6 z"
         id="path298"
         inkscape:connector-curvature="0"
         style="clip-rule:evenodd" /></clipPath><clipPath
       clipPathUnits="userSpaceOnUse"
       id="clipPath312"><path
         d="m 183.26,599.08 h 226.6 v 53.64 h -226.6 z"
         id="path310"
         inkscape:connector-curvature="0"
         style="clip-rule:evenodd" /></clipPath><clipPath
       clipPathUnits="userSpaceOnUse"
       id="clipPath324"><path
         d="m 183.26,599.08 h 226.6 v 53.64 h -226.6 z"
         id="path322"
         inkscape:connector-curvature="0"
         style="clip-rule:evenodd" /></clipPath><clipPath
       clipPathUnits="userSpaceOnUse"
       id="clipPath332"><path
         d="m 183.26,599.08 h 226.6 v 53.64 h -226.6 z"
         id="path330"
         inkscape:connector-curvature="0"
         style="clip-rule:evenodd" /></clipPath><clipPath
       clipPathUnits="userSpaceOnUse"
       id="clipPath344"><path
         d="m 183.26,599.08 h 226.6 v 53.64 h -226.6 z"
         id="path342"
         inkscape:connector-curvature="0"
         style="clip-rule:evenodd" /></clipPath><clipPath
       clipPathUnits="userSpaceOnUse"
       id="clipPath358"><path
         d="m 192.26,196.7 h 208.6 v 36 h -208.6 z"
         id="path356"
         inkscape:connector-curvature="0"
         style="clip-rule:evenodd" /></clipPath><clipPath
       clipPathUnits="userSpaceOnUse"
       id="clipPath370"><path
         d="m 192.26,196.7 h 208.6 v 36 h -208.6 z"
         id="path368"
         inkscape:connector-curvature="0"
         style="clip-rule:evenodd" /></clipPath><clipPath
       clipPathUnits="userSpaceOnUse"
       id="clipPath384"><path
         d="m 202.04,81.9 h 191.3 v 36 h -191.3 z"
         id="path382"
         inkscape:connector-curvature="0"
         style="clip-rule:evenodd" /></clipPath><clipPath
       clipPathUnits="userSpaceOnUse"
       id="clipPath396"><path
         d="m 202.04,81.9 h 191.3 v 36 h -191.3 z"
         id="path394"
         inkscape:connector-curvature="0"
         style="clip-rule:evenodd" /></clipPath><clipPath
       clipPathUnits="userSpaceOnUse"
       id="clipPath408"><path
         d="m 202.04,81.9 h 191.3 v 36 h -191.3 z"
         id="path406"
         inkscape:connector-curvature="0"
         style="clip-rule:evenodd" /></clipPath><clipPath
       clipPathUnits="userSpaceOnUse"
       id="clipPath420"><path
         d="m 202.04,81.9 h 191.3 v 36 h -191.3 z"
         id="path418"
         inkscape:connector-curvature="0"
         style="clip-rule:evenodd" /></clipPath><clipPath
       clipPathUnits="userSpaceOnUse"
       id="clipPath430"><path
         d="m 495.06,79.74 h 74.3 v 36 h -74.3 z"
         id="path428"
         inkscape:connector-curvature="0"
         style="clip-rule:evenodd" /></clipPath><clipPath
       clipPathUnits="userSpaceOnUse"
       id="clipPath442"><path
         d="m 495.06,79.74 h 74.3 v 36 h -74.3 z"
         id="path440"
         inkscape:connector-curvature="0"
         style="clip-rule:evenodd" /></clipPath><clipPath
       clipPathUnits="userSpaceOnUse"
       id="clipPath450"><path
         d="m 435.06,94.68 h 31.56 v 36 h -31.56 z"
         id="path448"
         inkscape:connector-curvature="0"
         style="clip-rule:evenodd" /></clipPath><clipPath
       clipPathUnits="userSpaceOnUse"
       id="clipPath462"><path
         d="m 435.06,94.68 h 31.56 v 36 h -31.56 z"
         id="path460"
         inkscape:connector-curvature="0"
         style="clip-rule:evenodd" /></clipPath><clipPath
       clipPathUnits="userSpaceOnUse"
       id="clipPath476"><path
         d="m 126.38,94.68 h 31.56 v 36 h -31.56 z"
         id="path474"
         inkscape:connector-curvature="0"
         style="clip-rule:evenodd" /></clipPath><clipPath
       clipPathUnits="userSpaceOnUse"
       id="clipPath488"><path
         d="m 126.38,94.68 h 31.56 v 36 h -31.56 z"
         id="path486"
         inkscape:connector-curvature="0"
         style="clip-rule:evenodd" /></clipPath><clipPath
       clipPathUnits="userSpaceOnUse"
       id="clipPath496"><path
         d="M 0,841.92 H 595.32 V 6.1035e-5 H 0"
         id="path494"
         inkscape:connector-curvature="0"
         style="clip-rule:evenodd" /></clipPath><clipPath
       clipPathUnits="userSpaceOnUse"
       id="clipPath506"><path
         d="M 0,841.92 H 595.32 V 6.1035e-5 H 0"
         id="path504"
         inkscape:connector-curvature="0"
         style="clip-rule:evenodd" /></clipPath><clipPath
       clipPathUnits="userSpaceOnUse"
       id="clipPath516"><path
         d="M 429.24,602.74 H 540.3 v 42 H 429.24 Z"
         id="path514"
         inkscape:connector-curvature="0"
         style="clip-rule:evenodd" /></clipPath><clipPath
       clipPathUnits="userSpaceOnUse"
       id="clipPath528"><path
         d="M 429.24,602.74 H 540.3 v 42 H 429.24 Z"
         id="path526"
         inkscape:connector-curvature="0"
         style="clip-rule:evenodd" /></clipPath><clipPath
       clipPathUnits="userSpaceOnUse"
       id="clipPath536"><path
         d="M 429.24,602.74 H 540.3 v 42 H 429.24 Z"
         id="path534"
         inkscape:connector-curvature="0"
         style="clip-rule:evenodd" /></clipPath><clipPath
       clipPathUnits="userSpaceOnUse"
       id="clipPath548"><path
         d="M 429.24,602.74 H 540.3 v 42 H 429.24 Z"
         id="path546"
         inkscape:connector-curvature="0"
         style="clip-rule:evenodd" /></clipPath></defs><sodipodi:namedview
     pagecolor="#ffffff"
     bordercolor="#666666"
     borderopacity="1"
     objecttolerance="10"
     gridtolerance="10"
     guidetolerance="10"
     inkscape:pageopacity="0"
     inkscape:pageshadow="2"
     inkscape:window-width="640"
     inkscape:window-height="480"
     id="namedview4"
     showgrid="false"
     inkscape:zoom="0.21023374"
     inkscape:cx="396.88"
     inkscape:cy="561.28003"
     inkscape:window-x="0"
     inkscape:window-y="30"
     inkscape:window-maximized="0"
     inkscape:current-layer="g10" /><g
     id="g10"
     inkscape:groupmode="layer"
     inkscape:label="罷工流程(1)"
     transform="matrix(1.3333333,0,0,-1.3333333,0,1122.56)"><g
       id="g12"><g
         id="g14"
         clip-path="url(#clipPath18)" /></g><g
       id="g20"><g
         id="g22"
         clip-path="url(#clipPath26)" /></g><path
       d="m 484.44,439.11 h 69.18 c 9.06,0 16.41,-10.48 16.41,-23.4 0,-12.92 -7.35,-23.4 -16.41,-23.4 h -69.18 c -9.06,0 -16.41,10.48 -16.41,23.4 0,12.92 7.35,23.4 16.41,23.4 z"
       style="fill:#ffffff;fill-opacity:1;fill-rule:evenodd;stroke:none"
       id="path28"
       inkscape:connector-curvature="0" /><path
       d="m 484.44,439.11 h 69.18 c 9.06,0 16.41,-10.48 16.41,-23.4 0,-12.92 -7.35,-23.4 -16.41,-23.4 h -69.18 c -9.06,0 -16.41,10.48 -16.41,23.4 0,12.92 7.35,23.4 16.41,23.4 z"
       style="fill:none;stroke:#000000;stroke-width:1.01999998;stroke-linecap:butt;stroke-linejoin:miter;stroke-miterlimit:10;stroke-dasharray:none;stroke-opacity:1"
       id="path30"
       inkscape:connector-curvature="0" /><path
       d="m 496.86,120.03 h 69.18 c 9.06,0 16.41,-10.49 16.41,-23.43 0,-12.94 -7.35,-23.43 -16.41,-23.43 h -69.18 c -9.06,0 -16.41,10.49 -16.41,23.43 0,12.94 7.35,23.43 16.41,23.43 z"
       style="fill:#ffffff;fill-opacity:1;fill-rule:evenodd;stroke:none"
       id="path32"
       inkscape:connector-curvature="0" /><path
       d="m 496.86,120.03 h 69.18 c 9.06,0 16.41,-10.49 16.41,-23.43 0,-12.94 -7.35,-23.43 -16.41,-23.43 h -69.18 c -9.06,0 -16.41,10.49 -16.41,23.43 0,12.94 7.35,23.43 16.41,23.43 z"
       style="fill:none;stroke:#000000;stroke-width:1.01999998;stroke-linecap:butt;stroke-linejoin:miter;stroke-miterlimit:10;stroke-dasharray:none;stroke-opacity:1"
       id="path34"
       inkscape:connector-curvature="0" /><path
       d="m 298.88,703.14 v -41.5 h -1 v 41.5 z m 2.5,-40.5 -3,-6 -3,6 z"
       style="fill:#000000;fill-opacity:1;fill-rule:nonzero;stroke:none"
       id="path36"
       inkscape:connector-curvature="0" /><path
       d="m 182.91,705.39 h 227.28 v 64.5 H 182.91 Z"
       style="fill:#ffffff;fill-opacity:1;fill-rule:evenodd;stroke:none"
       id="path38"
       inkscape:connector-curvature="0" /><path
       d="m 182.91,705.39 h 227.28 v 64.5 H 182.91 Z"
       style="fill:none;stroke:#000000;stroke-width:0.77999997;stroke-linecap:butt;stroke-linejoin:miter;stroke-miterlimit:10;stroke-dasharray:none;stroke-opacity:1"
       id="path40"
       inkscape:connector-curvature="0" /><g
       id="g42"><g
         id="g44"
         clip-path="url(#clipPath48)"><text
           transform="matrix(1,0,0,-1,254.56,741.84)"
           style="font-variant:normal;font-weight:normal;font-size:13.97999954px;writing-mode:lr-tb;fill:#000000;fill-opacity:1;fill-rule:nonzero;stroke:none"
           id="text52"><tspan
             x="0 13.98 27.959999 41.939999 55.961941 69.94194"
             y="0"
             sodipodi:role="line"
             id="tspan50">勞工私下密會</tspan></text>
</g></g><g
       id="g54"><g
         id="g56"
         clip-path="url(#clipPath60)" /></g><g
       id="g62"><g
         id="g64"
         clip-path="url(#clipPath68)"><text
           transform="matrix(1,0,0,-1,198.56,720.84)"
           style="font-variant:normal;font-weight:normal;font-size:13.97999954px;writing-mode:lr-tb;fill:#000000;fill-opacity:1;fill-rule:nonzero;stroke:none"
           id="text72"><tspan
             x="0 13.98 27.959999 41.939999 55.961941 69.94194 83.921944 97.901939 111.92388 125.90388 139.88388 153.86388 167.88582 181.86581"
             y="0"
             sodipodi:role="line"
             id="tspan70">對資方造成之權利侵害發表意見</tspan></text>
</g></g><g
       id="g74"><g
         id="g76"
         clip-path="url(#clipPath80)" /></g><g
       id="g82"><g
         id="g84"
         clip-path="url(#clipPath88)"><text
           transform="matrix(1,0,0,-1,490.08,411.68)"
           style="font-variant:normal;font-weight:normal;font-size:13.97999954px;writing-mode:lr-tb;fill:#000000;fill-opacity:1;fill-rule:nonzero;stroke:none"
           id="text92"><tspan
             x="0 13.98 27.959999 41.939999"
             y="0"
             sodipodi:role="line"
             id="tspan90">照常工作</tspan></text>
</g></g><g
       id="g94"><g
         id="g96"
         clip-path="url(#clipPath100)" /></g><g
       id="g102"><g
         id="g104"
         clip-path="url(#clipPath108)"><text
           transform="matrix(1,0,0,-1,426.84,429.32)"
           style="font-variant:normal;font-weight:normal;font-size:13.97999954px;writing-mode:lr-tb;fill:#000000;fill-opacity:1;fill-rule:nonzero;stroke:none"
           id="text112"><tspan
             x="0"
             y="0"
             id="tspan110">否</tspan></text>
</g></g><g
       id="g114"><g
         id="g116"
         clip-path="url(#clipPath120)" /></g><path
       d="m 207.69,504.75 h 178.5 v 43.86 h -178.5 z"
       style="fill:#ffffff;fill-opacity:1;fill-rule:evenodd;stroke:none"
       id="path122"
       inkscape:connector-curvature="0" /><path
       d="m 207.69,504.75 h 178.5 v 43.86 h -178.5 z"
       style="fill:none;stroke:#000000;stroke-width:0.77999997;stroke-linecap:butt;stroke-linejoin:miter;stroke-miterlimit:10;stroke-dasharray:none;stroke-opacity:1"
       id="path124"
       inkscape:connector-curvature="0" /><g
       id="g126"><g
         id="g128"
         clip-path="url(#clipPath132)"><text
           transform="matrix(1,0,0,-1,226.94,521.56)"
           style="font-variant:normal;font-weight:normal;font-size:13.97999954px;writing-mode:lr-tb;fill:#000000;fill-opacity:1;fill-rule:nonzero;stroke:none"
           id="text136"><tspan
             x="0 13.98"
             y="0"
             sodipodi:role="line"
             id="tspan134">全體</tspan></text>
</g></g><g
       id="g138"><g
         id="g140"
         clip-path="url(#clipPath144)"><text
           transform="matrix(1,0,0,-1,254.92,521.56)"
           style="font-variant:normal;font-weight:normal;font-size:13.97999954px;writing-mode:lr-tb;fill:#000000;fill-opacity:1;fill-rule:nonzero;stroke:none"
           id="text148"><tspan
             x="0 13.98 28.00194 41.981941"
             y="0"
             sodipodi:role="line"
             id="tspan146">員工各自</tspan></text>
</g></g><g
       id="g150"><g
         id="g152"
         clip-path="url(#clipPath156)"><text
           transform="matrix(1,0,0,-1,310.9,521.56)"
           style="font-variant:normal;font-weight:normal;font-size:13.97999954px;writing-mode:lr-tb;fill:#000000;fill-opacity:1;fill-rule:nonzero;stroke:none"
           id="text160"><tspan
             x="0 13.98 28.00194 41.981941"
             y="0"
             sodipodi:role="line"
             id="tspan158">投罷工票</tspan></text>
</g></g><g
       id="g162"><g
         id="g164"
         clip-path="url(#clipPath168)" /></g><path
       d="m 298.88,595.14 v -41.45 h -1 v 41.45 z m 2.5,-40.45 -3,-6 -3,6 z"
       style="fill:#000000;fill-opacity:1;fill-rule:nonzero;stroke:none"
       id="path170"
       inkscape:connector-curvature="0" /><path
       d="m 410.28,417.92 h 51.65 v -1 h -51.65 z m 50.65,2.5 6,-3 -6,-3 z"
       style="fill:#000000;fill-opacity:1;fill-rule:nonzero;stroke:none"
       id="path172"
       inkscape:connector-curvature="0" /><path
       d="m 298.88,504 v -41.45 h -1 V 504 Z m 2.5,-40.45 -3,-6 -3,6 z"
       style="fill:#000000;fill-opacity:1;fill-rule:nonzero;stroke:none"
       id="path174"
       inkscape:connector-curvature="0" /><path
       d="M 185.19,417.75 297.3,457.89 409.41,417.75 297.3,377.61 Z"
       style="fill:#ffffff;fill-opacity:1;fill-rule:evenodd;stroke:none"
       id="path176"
       inkscape:connector-curvature="0" /><path
       d="M 185.19,417.75 297.3,457.89 409.41,417.75 297.3,377.61 Z"
       style="fill:none;stroke:#000000;stroke-width:1.01999998;stroke-linecap:butt;stroke-linejoin:miter;stroke-miterlimit:10;stroke-dasharray:none;stroke-opacity:1"
       id="path178"
       inkscape:connector-curvature="0" /><g
       id="g180"><g
         id="g182"
         clip-path="url(#clipPath186)"><text
           transform="matrix(1,0,0,-1,220.7,412.04)"
           style="font-variant:normal;font-weight:normal;font-size:13.97999954px;writing-mode:lr-tb;fill:#000000;fill-opacity:1;fill-rule:nonzero;stroke:none"
           id="text190"><tspan
             x="0 13.98 27.959999 41.939999 55.961941 69.94194 83.921944"
             y="0"
             sodipodi:role="line"
             id="tspan188">全體員工是否皆</tspan></text>
</g></g><g
       id="g192"><g
         id="g194"
         clip-path="url(#clipPath198)"><text
           transform="matrix(1,0,0,-1,318.64,412.04)"
           style="font-variant:normal;font-weight:normal;font-size:13.97999954px;writing-mode:lr-tb;fill:#000000;fill-opacity:1;fill-rule:nonzero;stroke:none"
           id="text202"><tspan
             x="0 14.02194 28.00194 41.981941"
             y="0"
             sodipodi:role="line"
             id="tspan200">投罷工票</tspan></text>
</g></g><g
       id="g204"><g
         id="g206"
         clip-path="url(#clipPath210)" /></g><g
       id="g212"><g
         id="g214"
         clip-path="url(#clipPath218)" /></g><path
       d="m 298.88,376.14 v -41.5 h -1 v 41.5 z m 2.5,-40.5 -3,-6 -3,6 z"
       style="fill:#000000;fill-opacity:1;fill-rule:nonzero;stroke:none"
       id="path220"
       inkscape:connector-curvature="0" /><g
       id="g222"><g
         id="g224"
         clip-path="url(#clipPath228)"><text
           transform="matrix(1,0,0,-1,315.64,352.04)"
           style="font-variant:normal;font-weight:normal;font-size:13.97999954px;writing-mode:lr-tb;fill:#000000;fill-opacity:1;fill-rule:nonzero;stroke:none"
           id="text232"><tspan
             x="0 13.98 27.959999 41.939999 55.961941 69.94194"
             y="0"
             sodipodi:role="line"
             id="tspan230">是，全體員工</tspan></text>
</g></g><g
       id="g234"><g
         id="g236"
         clip-path="url(#clipPath240)"><text
           transform="matrix(1,0,0,-1,399.58,352.04)"
           style="font-variant:normal;font-weight:normal;font-size:13.97999954px;writing-mode:lr-tb;fill:#000000;fill-opacity:1;fill-rule:nonzero;stroke:none"
           id="text244"><tspan
             x="0 13.98 28.00194"
             y="0"
             sodipodi:role="line"
             id="tspan242">投罷工</tspan></text>
</g></g><g
       id="g246"><g
         id="g248"
         clip-path="url(#clipPath252)" /></g><path
       d="m 214.65,284.85 h 164.16 v 43.92 H 214.65 Z"
       style="fill:#ffffff;fill-opacity:1;fill-rule:evenodd;stroke:none"
       id="path254"
       inkscape:connector-curvature="0" /><path
       d="m 214.65,284.85 h 164.16 v 43.92 H 214.65 Z"
       style="fill:none;stroke:#000000;stroke-width:0.77999997;stroke-linecap:butt;stroke-linejoin:miter;stroke-miterlimit:10;stroke-dasharray:none;stroke-opacity:1"
       id="path256"
       inkscape:connector-curvature="0" /><g
       id="g258"><g
         id="g260"
         clip-path="url(#clipPath264)"><text
           transform="matrix(1,0,0,-1,240.7,301.64)"
           style="font-variant:normal;font-weight:normal;font-size:13.97999954px;writing-mode:lr-tb;fill:#000000;fill-opacity:1;fill-rule:nonzero;stroke:none"
           id="text268"><tspan
             x="0 13.98 27.959999 41.939999 55.961941 69.94194 83.921944 97.901939"
             y="0"
             sodipodi:role="line"
             id="tspan266">餐廳隔日停止運作</tspan></text>
</g></g><g
       id="g270"><g
         id="g272"
         clip-path="url(#clipPath276)" /></g><path
       d="m 182.91,595.11 h 227.28 v 61.5 H 182.91 Z"
       style="fill:#ffffff;fill-opacity:1;fill-rule:evenodd;stroke:none"
       id="path278"
       inkscape:connector-curvature="0" /><path
       d="m 182.91,595.11 h 227.28 v 61.5 H 182.91 Z"
       style="fill:none;stroke:#000000;stroke-width:0.77999997;stroke-linecap:butt;stroke-linejoin:miter;stroke-miterlimit:10;stroke-dasharray:none;stroke-opacity:1"
       id="path280"
       inkscape:connector-curvature="0" /><g
       id="g282"><g
         id="g284"
         clip-path="url(#clipPath288)"><text
           transform="matrix(1,0,0,-1,212.54,630.1)"
           style="font-variant:normal;font-weight:normal;font-size:13.97999954px;writing-mode:lr-tb;fill:#000000;fill-opacity:1;fill-rule:nonzero;stroke:none"
           id="text292"><tspan
             x="0 13.98 27.959999 41.939999"
             y="0"
             sodipodi:role="line"
             id="tspan290">決定是否</tspan></text>
</g></g><g
       id="g294"><g
         id="g296"
         clip-path="url(#clipPath300)"><text
           transform="matrix(1,0,0,-1,268.54,630.1)"
           style="font-variant:normal;font-weight:normal;font-size:13.97999954px;writing-mode:lr-tb;fill:#000000;fill-opacity:1;fill-rule:nonzero;stroke:none"
           id="text304"><tspan
             x="0 13.98 27.959999 41.939999"
             y="0"
             sodipodi:role="line"
             id="tspan302">（繼續）</tspan></text>
</g></g><g
       id="g306"><g
         id="g308"
         clip-path="url(#clipPath312)"><text
           transform="matrix(1,0,0,-1,324.52,630.1)"
           style="font-variant:normal;font-weight:normal;font-size:13.97999954px;writing-mode:lr-tb;fill:#000000;fill-opacity:1;fill-rule:nonzero;stroke:none"
           id="text316"><tspan
             x="0 13.98 27.959999 41.939999"
             y="0"
             sodipodi:role="line"
             id="tspan314">進行罷工</tspan></text>
</g></g><g
       id="g318"><g
         id="g320"
         clip-path="url(#clipPath324)" /></g><g
       id="g326"><g
         id="g328"
         clip-path="url(#clipPath332)"><text
           transform="matrix(1,0,0,-1,191.54,609.1)"
           style="font-variant:normal;font-weight:normal;font-size:13.97999954px;writing-mode:lr-tb;fill:#000000;fill-opacity:1;fill-rule:nonzero;stroke:none"
           id="text336"><tspan
             x="0 13.98 27.959999 41.939999 55.961941 69.94194 83.921944 97.901939 111.92388 125.90388 139.88388 153.86388 167.88582 181.86581 195.84583"
             y="0"
             sodipodi:role="line"
             id="tspan334">若決議進行，列出訴求並告知資方</tspan></text>
</g></g><g
       id="g338"><g
         id="g340"
         clip-path="url(#clipPath344)" /></g><path
       d="m 298.88,285 v -41.5 h -1 V 285 Z m 2.5,-40.5 -3,-6 -3,6 z"
       style="fill:#000000;fill-opacity:1;fill-rule:nonzero;stroke:none"
       id="path346"
       inkscape:connector-curvature="0" /><path
       d="m 191.91,192.75 h 209.28 v 43.86 H 191.91 Z"
       style="fill:#ffffff;fill-opacity:1;fill-rule:evenodd;stroke:none"
       id="path348"
       inkscape:connector-curvature="0" /><path
       d="m 191.91,192.75 h 209.28 v 43.86 H 191.91 Z"
       style="fill:none;stroke:#000000;stroke-width:0.77999997;stroke-linecap:butt;stroke-linejoin:miter;stroke-miterlimit:10;stroke-dasharray:none;stroke-opacity:1"
       id="path350"
       inkscape:connector-curvature="0" /><g
       id="g352"><g
         id="g354"
         clip-path="url(#clipPath358)"><text
           transform="matrix(1,0,0,-1,205.58,209.54)"
           style="font-variant:normal;font-weight:normal;font-size:13.97999954px;writing-mode:lr-tb;fill:#000000;fill-opacity:1;fill-rule:nonzero;stroke:none"
           id="text362"><tspan
             x="0 13.98 27.959999 41.939999 55.961941 69.94194 83.921944 97.901939 111.92388 125.90388 139.88388 153.86388 167.88582"
             y="0"
             sodipodi:role="line"
             id="tspan360">工會代表與資方進行條件談判</tspan></text>
</g></g><g
       id="g364"><g
         id="g366"
         clip-path="url(#clipPath370)" /></g><path
       d="m 298.88,192.78 v -41.5 h -1 v 41.5 z m 2.5,-40.5 -3,-6 -3,6 z"
       style="fill:#000000;fill-opacity:1;fill-rule:nonzero;stroke:none"
       id="path372"
       inkscape:connector-curvature="0" /><path
       d="M 170.19,99 296.97,144.39 423.75,99 296.97,53.61 Z"
       style="fill:#ffffff;fill-opacity:1;fill-rule:evenodd;stroke:none"
       id="path374"
       inkscape:connector-curvature="0" /><path
       d="M 170.19,99 296.97,144.39 423.75,99 296.97,53.61 Z"
       style="fill:none;stroke:#000000;stroke-width:1.01999998;stroke-linecap:butt;stroke-linejoin:miter;stroke-miterlimit:10;stroke-dasharray:none;stroke-opacity:1"
       id="path376"
       inkscape:connector-curvature="0" /><g
       id="g378"><g
         id="g380"
         clip-path="url(#clipPath384)"><text
           transform="matrix(1,0,0,-1,213.68,94.74)"
           style="font-variant:normal;font-weight:normal;font-size:13.97999954px;writing-mode:lr-tb;fill:#000000;fill-opacity:1;fill-rule:nonzero;stroke:none"
           id="text388"><tspan
             x="0 13.98 27.959999 41.939999 55.961941"
             y="0"
             sodipodi:role="line"
             id="tspan386">資方是否願</tspan></text>
</g></g><g
       id="g390"><g
         id="g392"
         clip-path="url(#clipPath396)"><text
           transform="matrix(1,0,0,-1,283.66,94.74)"
           style="font-variant:normal;font-weight:normal;font-size:13.97999954px;writing-mode:lr-tb;fill:#000000;fill-opacity:1;fill-rule:nonzero;stroke:none"
           id="text400"><tspan
             x="0"
             y="0"
             id="tspan398">意</tspan></text>
</g></g><g
       id="g402"><g
         id="g404"
         clip-path="url(#clipPath408)"><text
           transform="matrix(1,0,0,-1,297.64,94.74)"
           style="font-variant:normal;font-weight:normal;font-size:13.97999954px;writing-mode:lr-tb;fill:#000000;fill-opacity:1;fill-rule:nonzero;stroke:none"
           id="text412"><tspan
             x="0 13.98 28.00194 41.981941 55.961941 69.94194"
             y="0"
             sodipodi:role="line"
             id="tspan410">滿足全部條件</tspan></text>
</g></g><g
       id="g414"><g
         id="g416"
         clip-path="url(#clipPath420)" /></g><path
       d="m 423.78,99.14 h 51.65 v -1 h -51.65 z m 50.65,2.5 6,-3 -6,-3 z"
       style="fill:#000000;fill-opacity:1;fill-rule:nonzero;stroke:none"
       id="path422"
       inkscape:connector-curvature="0" /><g
       id="g424"><g
         id="g426"
         clip-path="url(#clipPath430)"><text
           transform="matrix(1,0,0,-1,504.18,92.58)"
           style="font-variant:normal;font-weight:normal;font-size:13.97999954px;writing-mode:lr-tb;fill:#000000;fill-opacity:1;fill-rule:nonzero;stroke:none"
           id="text434"><tspan
             x="0 13.98 27.959999 41.939999"
             y="0"
             sodipodi:role="line"
             id="tspan432">罷工停止</tspan></text>
</g></g><g
       id="g436"><g
         id="g438"
         clip-path="url(#clipPath442)" /></g><g
       id="g444"><g
         id="g446"
         clip-path="url(#clipPath450)"><text
           transform="matrix(1,0,0,-1,442.26,107.52)"
           style="font-variant:normal;font-weight:normal;font-size:13.97999954px;writing-mode:lr-tb;fill:#000000;fill-opacity:1;fill-rule:nonzero;stroke:none"
           id="text454"><tspan
             x="0"
             y="0"
             id="tspan452">是</tspan></text>
</g></g><g
       id="g456"><g
         id="g458"
         clip-path="url(#clipPath462)" /></g><path
       d="M 173.93,98.64 H 108.78"
       style="fill:none;stroke:#000000;stroke-width:0.47999999;stroke-linecap:butt;stroke-linejoin:miter;stroke-miterlimit:10;stroke-dasharray:none;stroke-opacity:1"
       id="path464"
       inkscape:connector-curvature="0" /><path
       d="M 108.78,99.3 V 623.7"
       style="fill:none;stroke:#000000;stroke-width:0.47999999;stroke-linecap:butt;stroke-linejoin:miter;stroke-miterlimit:10;stroke-dasharray:none;stroke-opacity:1"
       id="path466"
       inkscape:connector-curvature="0" /><path
       d="m 108.78,624.14 h 68.7 v -1 h -68.7 z m 67.7,2.5 6,-3 -6,-3 z"
       style="fill:#000000;fill-opacity:1;fill-rule:nonzero;stroke:none"
       id="path468"
       inkscape:connector-curvature="0" /><g
       id="g470"><g
         id="g472"
         clip-path="url(#clipPath476)"><text
           transform="matrix(1,0,0,-1,133.58,107.52)"
           style="font-variant:normal;font-weight:normal;font-size:13.97999954px;writing-mode:lr-tb;fill:#000000;fill-opacity:1;fill-rule:nonzero;stroke:none"
           id="text480"><tspan
             x="0"
             y="0"
             id="tspan478">否</tspan></text>
</g></g><g
       id="g482"><g
         id="g484"
         clip-path="url(#clipPath488)" /></g><g
       id="g490"><g
         id="g492"
         clip-path="url(#clipPath496)"><path
           d="m 432.72,595.23 c -5.05,0 -9.15,4.1 -9.15,9.15 v 36.6 c 0,5.05 4.1,9.15 9.15,9.15 h 100.56 c 5.05,0 9.15,-4.1 9.15,-9.15 v -36.6 c 0,-5.05 -4.1,-9.15 -9.15,-9.15 z"
           style="fill:#e7e6e6;fill-opacity:1;fill-rule:evenodd;stroke:none"
           id="path498"
           inkscape:connector-curvature="0" /></g></g><g
       id="g500"><g
         id="g502"
         clip-path="url(#clipPath506)"><path
           d="m 432.72,595.23 c -5.05,0 -9.15,4.1 -9.15,9.15 v 36.6 c 0,5.05 4.1,9.15 9.15,9.15 h 100.56 c 5.05,0 9.15,-4.1 9.15,-9.15 v -36.6 c 0,-5.05 -4.1,-9.15 -9.15,-9.15 z"
           style="fill:none;stroke:#70ad47;stroke-width:1.01999998;stroke-linecap:butt;stroke-linejoin:miter;stroke-miterlimit:10;stroke-dasharray:none;stroke-opacity:1"
           id="path508"
           inkscape:connector-curvature="0" /></g></g><g
       id="g510"><g
         id="g512"
         clip-path="url(#clipPath516)"><text
           transform="matrix(1,0,0,-1,436.44,627.94)"
           style="font-variant:normal;font-weight:normal;font-size:12px;writing-mode:lr-tb;fill:#000000;fill-opacity:1;fill-rule:nonzero;stroke:none"
           id="text520"><tspan
             x="0 12 24 36 48 60 72 84"
             y="0"
             sodipodi:role="line"
             id="tspan518">若資方滿足其訴求</tspan></text>
</g></g><g
       id="g522"><g
         id="g524"
         clip-path="url(#clipPath528)" /></g><g
       id="g530"><g
         id="g532"
         clip-path="url(#clipPath536)"><text
           transform="matrix(1,0,0,-1,436.44,606.94)"
           style="font-variant:normal;font-weight:normal;font-size:12px;writing-mode:lr-tb;fill:#000000;fill-opacity:1;fill-rule:nonzero;stroke:none"
           id="text540"><tspan
             x="0 12 24 36 48 60 72"
             y="0"
             sodipodi:role="line"
             id="tspan538">則不得繼續進行</tspan></text>
</g></g><g
       id="g542"><g
         id="g544"
         clip-path="url(#clipPath548)" /></g></g></svg>