<?xml version="1.0" encoding="UTF-8" standalone="no"?>
<!-- Created with Inkscape (http://www.inkscape.org/) -->

<svg
   xmlns:dc="http://purl.org/dc/elements/1.1/"
   xmlns:cc="http://creativecommons.org/ns#"
   xmlns:rdf="http://www.w3.org/1999/02/22-rdf-syntax-ns#"
   xmlns:svg="http://www.w3.org/2000/svg"
   xmlns="http://www.w3.org/2000/svg"
   xmlns:sodipodi="http://sodipodi.sourceforge.net/DTD/sodipodi-0.dtd"
   xmlns:inkscape="http://www.inkscape.org/namespaces/inkscape"
   version="1.1"
   id="svg2"
   xml:space="preserve"
   width="793.76001"
   height="1122.5601"
   viewBox="0 0 793.76001 1122.5601"
   sodipodi:docname="strikeFlowChart.svg"
   inkscape:version="0.92.2 2405546, 2018-03-11"><metadata
     id="metadata8"><rdf:RDF><cc:Work
         rdf:about=""><dc:format>image/svg+xml</dc:format><dc:type
           rdf:resource="http://purl.org/dc/dcmitype/StillImage" /><dc:title></dc:title></cc:Work></rdf:RDF></metadata><defs
     id="defs6"><clipPath
       clipPathUnits="userSpaceOnUse"
       id="clipPath18"><path
         d="M 8.871e-6,0 H 595.32001 V 841.92 H 8.871e-6 Z"
         id="path16"
         inkscape:connector-curvature="0"
         style="clip-rule:evenodd" /></clipPath><clipPath
       clipPathUnits="userSpaceOnUse"
       id="clipPath26"><path
         d="M 8.871e-6,0 H 595.32001 V 841.92 H 8.871e-6 Z"
         id="path24"
         inkscape:connector-curvature="0"
         style="clip-rule:evenodd" /></clipPath><clipPath
       clipPathUnits="userSpaceOnUse"
       id="clipPath48"><path
         d="m 183.26,709.36 h 226.6 v 56.6 h -226.6 z"
         id="path46"
         inkscape:connector-curvature="0"
         style="clip-rule:evenodd" /></clipPath><clipPath
       clipPathUnits="userSpaceOnUse"
       id="clipPath60"><path
         d="m 183.26,709.36 h 226.6 v 56.6 h -226.6 z"
         id="path58"
         inkscape:connector-curvature="0"
         style="clip-rule:evenodd" /></clipPath><clipPath
       clipPathUnits="userSpaceOnUse"
       id="clipPath68"><path
         d="m 183.26,709.36 h 226.6 v 56.6 h -226.6 z"
         id="path66"
         inkscape:connector-curvature="0"
         style="clip-rule:evenodd" /></clipPath><clipPath
       clipPathUnits="userSpaceOnUse"
       id="clipPath80"><path
         d="m 183.26,709.36 h 226.6 v 56.6 h -226.6 z"
         id="path78"
         inkscape:connector-curvature="0"
         style="clip-rule:evenodd" /></clipPath><clipPath
       clipPathUnits="userSpaceOnUse"
       id="clipPath88"><path
         d="m 480.96,398.84 h 74.28 v 36.02 h -74.28 z"
         id="path86"
         inkscape:connector-curvature="0"
         style="clip-rule:evenodd" /></clipPath><clipPath
       clipPathUnits="userSpaceOnUse"
       id="clipPath100"><path
         d="m 480.96,398.84 h 74.28 v 36.02 h -74.28 z"
         id="path98"
         inkscape:connector-curvature="0"
         style="clip-rule:evenodd" /></clipPath><clipPath
       clipPathUnits="userSpaceOnUse"
       id="clipPath108"><path
         d="M 419.64,416.48 H 451.2 V 452.5 H 419.64 Z"
         id="path106"
         inkscape:connector-curvature="0"
         style="clip-rule:evenodd" /></clipPath><clipPath
       clipPathUnits="userSpaceOnUse"
       id="clipPath120"><path
         d="M 419.64,416.48 H 451.2 V 452.5 H 419.64 Z"
         id="path118"
         inkscape:connector-curvature="0"
         style="clip-rule:evenodd" /></clipPath><clipPath
       clipPathUnits="userSpaceOnUse"
       id="clipPath132"><path
         d="m 208.04,508.72 h 177.8 v 36 h -177.8 z"
         id="path130"
         inkscape:connector-curvature="0"
         style="clip-rule:evenodd" /></clipPath><clipPath
       clipPathUnits="userSpaceOnUse"
       id="clipPath144"><path
         d="m 208.04,508.72 h 177.8 v 36 h -177.8 z"
         id="path142"
         inkscape:connector-curvature="0"
         style="clip-rule:evenodd" /></clipPath><clipPath
       clipPathUnits="userSpaceOnUse"
       id="clipPath156"><path
         d="m 208.04,508.72 h 177.8 v 36 h -177.8 z"
         id="path154"
         inkscape:connector-curvature="0"
         style="clip-rule:evenodd" /></clipPath><clipPath
       clipPathUnits="userSpaceOnUse"
       id="clipPath174"><path
         d="m 172.04,404.84 h 251.32 v 30.38 H 172.04 Z"
         id="path172"
         inkscape:connector-curvature="0"
         style="clip-rule:evenodd" /></clipPath><clipPath
       clipPathUnits="userSpaceOnUse"
       id="clipPath186"><path
         d="m 172.04,404.84 h 251.32 v 30.38 H 172.04 Z"
         id="path184"
         inkscape:connector-curvature="0"
         style="clip-rule:evenodd" /></clipPath><clipPath
       clipPathUnits="userSpaceOnUse"
       id="clipPath194"><path
         d="m 172.04,404.84 h 251.32 v 30.38 H 172.04 Z"
         id="path192"
         inkscape:connector-curvature="0"
         style="clip-rule:evenodd" /></clipPath><clipPath
       clipPathUnits="userSpaceOnUse"
       id="clipPath204"><path
         d="m 306.4,339.2 h 144.44 v 36 H 306.4 Z"
         id="path202"
         inkscape:connector-curvature="0"
         style="clip-rule:evenodd" /></clipPath><clipPath
       clipPathUnits="userSpaceOnUse"
       id="clipPath216"><path
         d="m 306.4,339.2 h 144.44 v 36 H 306.4 Z"
         id="path214"
         inkscape:connector-curvature="0"
         style="clip-rule:evenodd" /></clipPath><clipPath
       clipPathUnits="userSpaceOnUse"
       id="clipPath228"><path
         d="m 306.4,339.2 h 144.44 v 36 H 306.4 Z"
         id="path226"
         inkscape:connector-curvature="0"
         style="clip-rule:evenodd" /></clipPath><clipPath
       clipPathUnits="userSpaceOnUse"
       id="clipPath240"><path
         d="m 214.94,288.8 h 163.52 v 36 H 214.94 Z"
         id="path238"
         inkscape:connector-curvature="0"
         style="clip-rule:evenodd" /></clipPath><clipPath
       clipPathUnits="userSpaceOnUse"
       id="clipPath252"><path
         d="m 214.94,288.8 h 163.52 v 36 H 214.94 Z"
         id="path250"
         inkscape:connector-curvature="0"
         style="clip-rule:evenodd" /></clipPath><clipPath
       clipPathUnits="userSpaceOnUse"
       id="clipPath264"><path
         d="m 201.38,599.08 h 191.66 v 53.64 H 201.38 Z"
         id="path262"
         inkscape:connector-curvature="0"
         style="clip-rule:evenodd" /></clipPath><clipPath
       clipPathUnits="userSpaceOnUse"
       id="clipPath276"><path
         d="m 201.38,599.08 h 191.66 v 53.64 H 201.38 Z"
         id="path274"
         inkscape:connector-curvature="0"
         style="clip-rule:evenodd" /></clipPath><clipPath
       clipPathUnits="userSpaceOnUse"
       id="clipPath288"><path
         d="m 201.38,599.08 h 191.66 v 53.64 H 201.38 Z"
         id="path286"
         inkscape:connector-curvature="0"
         style="clip-rule:evenodd" /></clipPath><clipPath
       clipPathUnits="userSpaceOnUse"
       id="clipPath300"><path
         d="m 201.38,599.08 h 191.66 v 53.64 H 201.38 Z"
         id="path298"
         inkscape:connector-curvature="0"
         style="clip-rule:evenodd" /></clipPath><clipPath
       clipPathUnits="userSpaceOnUse"
       id="clipPath308"><path
         d="m 201.38,599.08 h 191.66 v 53.64 H 201.38 Z"
         id="path306"
         inkscape:connector-curvature="0"
         style="clip-rule:evenodd" /></clipPath><clipPath
       clipPathUnits="userSpaceOnUse"
       id="clipPath320"><path
         d="m 201.38,599.08 h 191.66 v 53.64 H 201.38 Z"
         id="path318"
         inkscape:connector-curvature="0"
         style="clip-rule:evenodd" /></clipPath><clipPath
       clipPathUnits="userSpaceOnUse"
       id="clipPath328"><path
         d="m 103.88,368.78 h 165.44 v 36 H 103.88 Z"
         id="path326"
         inkscape:connector-curvature="0"
         style="clip-rule:evenodd" /></clipPath><clipPath
       clipPathUnits="userSpaceOnUse"
       id="clipPath340"><path
         d="m 103.88,368.78 h 165.44 v 36 H 103.88 Z"
         id="path338"
         inkscape:connector-curvature="0"
         style="clip-rule:evenodd" /></clipPath><clipPath
       clipPathUnits="userSpaceOnUse"
       id="clipPath352"><path
         d="m 103.88,368.78 h 165.44 v 36 H 103.88 Z"
         id="path350"
         inkscape:connector-curvature="0"
         style="clip-rule:evenodd" /></clipPath><clipPath
       clipPathUnits="userSpaceOnUse"
       id="clipPath366"><path
         d="M 63.06,329.36 H 105.8 V 508 H 63.06 Z"
         id="path364"
         inkscape:connector-curvature="0"
         style="clip-rule:evenodd" /></clipPath><clipPath
       clipPathUnits="userSpaceOnUse"
       id="clipPath390"><path
         d="M 63.06,329.36 H 105.8 V 508 H 63.06 Z"
         id="path388"
         inkscape:connector-curvature="0"
         style="clip-rule:evenodd" /></clipPath><clipPath
       clipPathUnits="userSpaceOnUse"
       id="clipPath402"><path
         d="M 63.06,329.36 H 105.8 V 508 H 63.06 Z"
         id="path400"
         inkscape:connector-curvature="0"
         style="clip-rule:evenodd" /></clipPath><clipPath
       clipPathUnits="userSpaceOnUse"
       id="clipPath418"><path
         d="M 63.06,329.36 H 105.8 V 508 H 63.06 Z"
         id="path416"
         inkscape:connector-curvature="0"
         style="clip-rule:evenodd" /></clipPath><clipPath
       clipPathUnits="userSpaceOnUse"
       id="clipPath426"><path
         d="M 63.06,329.36 H 105.8 V 508 H 63.06 Z"
         id="path424"
         inkscape:connector-curvature="0"
         style="clip-rule:evenodd" /></clipPath><clipPath
       clipPathUnits="userSpaceOnUse"
       id="clipPath440"><path
         d="M 63.06,329.36 H 105.8 V 508 H 63.06 Z"
         id="path438"
         inkscape:connector-curvature="0"
         style="clip-rule:evenodd" /></clipPath><clipPath
       clipPathUnits="userSpaceOnUse"
       id="clipPath452"><path
         d="M 63.06,329.36 H 105.8 V 508 H 63.06 Z"
         id="path450"
         inkscape:connector-curvature="0"
         style="clip-rule:evenodd" /></clipPath><clipPath
       clipPathUnits="userSpaceOnUse"
       id="clipPath470"><path
         d="M 63.06,329.36 H 105.8 V 508 H 63.06 Z"
         id="path468"
         inkscape:connector-curvature="0"
         style="clip-rule:evenodd" /></clipPath><clipPath
       clipPathUnits="userSpaceOnUse"
       id="clipPath484"><path
         d="m 192.26,196.7 h 208.6 v 36 h -208.6 z"
         id="path482"
         inkscape:connector-curvature="0"
         style="clip-rule:evenodd" /></clipPath><clipPath
       clipPathUnits="userSpaceOnUse"
       id="clipPath496"><path
         d="m 192.26,196.7 h 208.6 v 36 h -208.6 z"
         id="path494"
         inkscape:connector-curvature="0"
         style="clip-rule:evenodd" /></clipPath><clipPath
       clipPathUnits="userSpaceOnUse"
       id="clipPath510"><path
         d="m 202.04,81.9 h 191.3 v 36 h -191.3 z"
         id="path508"
         inkscape:connector-curvature="0"
         style="clip-rule:evenodd" /></clipPath><clipPath
       clipPathUnits="userSpaceOnUse"
       id="clipPath522"><path
         d="m 202.04,81.9 h 191.3 v 36 h -191.3 z"
         id="path520"
         inkscape:connector-curvature="0"
         style="clip-rule:evenodd" /></clipPath><clipPath
       clipPathUnits="userSpaceOnUse"
       id="clipPath534"><path
         d="m 202.04,81.9 h 191.3 v 36 h -191.3 z"
         id="path532"
         inkscape:connector-curvature="0"
         style="clip-rule:evenodd" /></clipPath><clipPath
       clipPathUnits="userSpaceOnUse"
       id="clipPath546"><path
         d="m 202.04,81.9 h 191.3 v 36 h -191.3 z"
         id="path544"
         inkscape:connector-curvature="0"
         style="clip-rule:evenodd" /></clipPath><clipPath
       clipPathUnits="userSpaceOnUse"
       id="clipPath556"><path
         d="m 495.06,79.74 h 74.3 v 36 h -74.3 z"
         id="path554"
         inkscape:connector-curvature="0"
         style="clip-rule:evenodd" /></clipPath><clipPath
       clipPathUnits="userSpaceOnUse"
       id="clipPath568"><path
         d="m 495.06,79.74 h 74.3 v 36 h -74.3 z"
         id="path566"
         inkscape:connector-curvature="0"
         style="clip-rule:evenodd" /></clipPath><clipPath
       clipPathUnits="userSpaceOnUse"
       id="clipPath576"><path
         d="m 435.06,94.98 h 31.56 v 36 h -31.56 z"
         id="path574"
         inkscape:connector-curvature="0"
         style="clip-rule:evenodd" /></clipPath><clipPath
       clipPathUnits="userSpaceOnUse"
       id="clipPath588"><path
         d="m 435.06,94.98 h 31.56 v 36 h -31.56 z"
         id="path586"
         inkscape:connector-curvature="0"
         style="clip-rule:evenodd" /></clipPath><clipPath
       clipPathUnits="userSpaceOnUse"
       id="clipPath606"><path
         d="m 43.26,126.12 h 63.02 V 322.4 H 43.26 Z"
         id="path604"
         inkscape:connector-curvature="0"
         style="clip-rule:evenodd" /></clipPath><clipPath
       clipPathUnits="userSpaceOnUse"
       id="clipPath638"><path
         d="m 43.26,126.12 h 63.02 V 322.4 H 43.26 Z"
         id="path636"
         inkscape:connector-curvature="0"
         style="clip-rule:evenodd" /></clipPath><clipPath
       clipPathUnits="userSpaceOnUse"
       id="clipPath646"><path
         d="m 43.26,126.12 h 63.02 V 322.4 H 43.26 Z"
         id="path644"
         inkscape:connector-curvature="0"
         style="clip-rule:evenodd" /></clipPath><clipPath
       clipPathUnits="userSpaceOnUse"
       id="clipPath680"><path
         d="m 43.26,126.12 h 63.02 V 322.4 H 43.26 Z"
         id="path678"
         inkscape:connector-curvature="0"
         style="clip-rule:evenodd" /></clipPath><clipPath
       clipPathUnits="userSpaceOnUse"
       id="clipPath688"><path
         d="m 43.26,126.12 h 63.02 V 322.4 H 43.26 Z"
         id="path686"
         inkscape:connector-curvature="0"
         style="clip-rule:evenodd" /></clipPath><clipPath
       clipPathUnits="userSpaceOnUse"
       id="clipPath708"><path
         d="m 43.26,126.12 h 63.02 V 322.4 H 43.26 Z"
         id="path706"
         inkscape:connector-curvature="0"
         style="clip-rule:evenodd" /></clipPath></defs><sodipodi:namedview
     pagecolor="#ffffff"
     bordercolor="#666666"
     borderopacity="1"
     objecttolerance="10"
     gridtolerance="10"
     guidetolerance="10"
     inkscape:pageopacity="0"
     inkscape:pageshadow="2"
     inkscape:window-width="1920"
     inkscape:window-height="1050"
     id="namedview4"
     showgrid="false"
     inkscape:zoom="1.1892616"
     inkscape:cx="284.50762"
     inkscape:cy="667.61777"
     inkscape:window-x="0"
     inkscape:window-y="30"
     inkscape:window-maximized="1"
     inkscape:current-layer="g10" /><g
     id="g10"
     inkscape:groupmode="layer"
     inkscape:label="罷工流程"
     transform="matrix(1.3333333,0,0,-1.3333333,0,1122.56)"><g
       id="g12"><g
         id="g14"
         clip-path="url(#clipPath18)" /></g><g
       id="g20"><g
         id="g22"
         clip-path="url(#clipPath26)" /></g><path
       d="m 484.44,439.11 h 69.18 c 9.06,0 16.41,-10.48 16.41,-23.4 0,-12.92 -7.35,-23.4 -16.41,-23.4 h -69.18 c -9.06,0 -16.41,10.48 -16.41,23.4 0,12.92 7.35,23.4 16.41,23.4 z"
       style="fill:#ffffff;fill-opacity:1;fill-rule:evenodd;stroke:none"
       id="path28"
       inkscape:connector-curvature="0" /><path
       d="m 484.44,439.11 h 69.18 c 9.06,0 16.41,-10.48 16.41,-23.4 0,-12.92 -7.35,-23.4 -16.41,-23.4 h -69.18 c -9.06,0 -16.41,10.48 -16.41,23.4 0,12.92 7.35,23.4 16.41,23.4 z"
       style="fill:none;stroke:#000000;stroke-width:1.01999998;stroke-linecap:butt;stroke-linejoin:miter;stroke-miterlimit:10;stroke-dasharray:none;stroke-opacity:1"
       id="path30"
       inkscape:connector-curvature="0" /><path
       d="m 496.86,120.03 h 69.18 c 9.06,0 16.41,-10.49 16.41,-23.43 0,-12.94 -7.35,-23.43 -16.41,-23.43 h -69.18 c -9.06,0 -16.41,10.49 -16.41,23.43 0,12.94 7.35,23.43 16.41,23.43 z"
       style="fill:#ffffff;fill-opacity:1;fill-rule:evenodd;stroke:none"
       id="path32"
       inkscape:connector-curvature="0" /><path
       d="m 496.86,120.03 h 69.18 c 9.06,0 16.41,-10.49 16.41,-23.43 0,-12.94 -7.35,-23.43 -16.41,-23.43 h -69.18 c -9.06,0 -16.41,10.49 -16.41,23.43 0,12.94 7.35,23.43 16.41,23.43 z"
       style="fill:none;stroke:#000000;stroke-width:1.01999998;stroke-linecap:butt;stroke-linejoin:miter;stroke-miterlimit:10;stroke-dasharray:none;stroke-opacity:1"
       id="path34"
       inkscape:connector-curvature="0" /><path
       d="m 298.88,703.14 v -41.5 h -1 v 41.5 z m 2.5,-40.5 -3,-6 -3,6 z"
       style="fill:#000000;fill-opacity:1;fill-rule:nonzero;stroke:none"
       id="path36"
       inkscape:connector-curvature="0" /><path
       d="m 182.91,705.39 h 227.28 v 64.5 H 182.91 Z"
       style="fill:#ffffff;fill-opacity:1;fill-rule:evenodd;stroke:none"
       id="path38"
       inkscape:connector-curvature="0" /><path
       d="m 182.91,705.39 h 227.28 v 64.5 H 182.91 Z"
       style="fill:none;stroke:#000000;stroke-width:0.77999997;stroke-linecap:butt;stroke-linejoin:miter;stroke-miterlimit:10;stroke-dasharray:none;stroke-opacity:1"
       id="path40"
       inkscape:connector-curvature="0" /><g
       id="g42"><g
         id="g44"
         clip-path="url(#clipPath48)"><text
           transform="matrix(1,0,0,-1,254.56,741.84)"
           style="font-variant:normal;font-weight:normal;font-size:13.97999954px;writing-mode:lr-tb;fill:#000000;fill-opacity:1;fill-rule:nonzero;stroke:none"
           id="text52"><tspan
             x="0 13.98 27.959999 41.939999 55.961941 69.94194"
             y="0"
             sodipodi:role="line"
             id="tspan50">勞工私下密會</tspan></text>
</g></g><g
       id="g54"><g
         id="g56"
         clip-path="url(#clipPath60)" /></g><g
       id="g62"><g
         id="g64"
         clip-path="url(#clipPath68)"><text
           transform="matrix(1,0,0,-1,198.56,720.84)"
           style="font-variant:normal;font-weight:normal;font-size:13.97999954px;writing-mode:lr-tb;fill:#000000;fill-opacity:1;fill-rule:nonzero;stroke:none"
           id="text72"><tspan
             x="0 13.98 27.959999 41.939999 55.961941 69.94194 83.921944 97.901939 111.92388 125.90388 139.88388 153.86388 167.88582 181.86581"
             y="0"
             sodipodi:role="line"
             id="tspan70">對資方造成之權利侵害發表意見</tspan></text>
</g></g><g
       id="g74"><g
         id="g76"
         clip-path="url(#clipPath80)" /></g><g
       id="g82"><g
         id="g84"
         clip-path="url(#clipPath88)"><text
           transform="matrix(1,0,0,-1,490.08,411.68)"
           style="font-variant:normal;font-weight:normal;font-size:13.97999954px;writing-mode:lr-tb;fill:#000000;fill-opacity:1;fill-rule:nonzero;stroke:none"
           id="text92"><tspan
             x="0 13.98 27.959999 41.939999"
             y="0"
             sodipodi:role="line"
             id="tspan90">照常工作</tspan></text>
</g></g><g
       id="g94"><g
         id="g96"
         clip-path="url(#clipPath100)" /></g><g
       id="g102"
       transform="translate(0,-27.74831)"><g
         id="g104"
         clip-path="url(#clipPath108)"><text
           transform="matrix(1,0,0,-1,426.84,429.32)"
           style="font-variant:normal;font-weight:normal;font-size:13.97999954px;writing-mode:lr-tb;fill:#000000;fill-opacity:1;fill-rule:nonzero;stroke:none"
           id="text112"><tspan
             x="0"
             y="0"
             id="tspan110">否</tspan></text>
</g></g><g
       id="g114"><g
         id="g116"
         clip-path="url(#clipPath120)" /></g><path
       d="m 207.69,504.75 h 178.5 v 43.86 h -178.5 z"
       style="fill:#ffffff;fill-opacity:1;fill-rule:evenodd;stroke:none"
       id="path122"
       inkscape:connector-curvature="0" /><path
       d="m 207.69,504.75 h 178.5 v 43.86 h -178.5 z"
       style="fill:none;stroke:#000000;stroke-width:0.77999997;stroke-linecap:butt;stroke-linejoin:miter;stroke-miterlimit:10;stroke-dasharray:none;stroke-opacity:1"
       id="path124"
       inkscape:connector-curvature="0" /><g
       id="g126"><g
         id="g128"
         clip-path="url(#clipPath132)"><text
           transform="matrix(1,0,0,-1,240.94,521.56)"
           style="font-variant:normal;font-weight:normal;font-size:13.97999954px;writing-mode:lr-tb;fill:#000000;fill-opacity:1;fill-rule:nonzero;stroke:none"
           id="text136"><tspan
             x="0 13.98 27.959999 41.939999"
             y="0"
             sodipodi:role="line"
             id="tspan134">員工各自</tspan></text>
</g></g><g
       id="g138"><g
         id="g140"
         clip-path="url(#clipPath144)"><text
           transform="matrix(1,0,0,-1,296.92,521.56)"
           style="font-variant:normal;font-weight:normal;font-size:13.97999954px;writing-mode:lr-tb;fill:#000000;fill-opacity:1;fill-rule:nonzero;stroke:none"
           id="text148"><tspan
             x="0 13.98 27.959999 41.939999"
             y="0"
             sodipodi:role="line"
             id="tspan146">投罷工票</tspan></text>
</g></g><g
       id="g150"><g
         id="g152"
         clip-path="url(#clipPath156)" /></g><path
       d="m 298.88,595.14 v -41.45 h -1 v 41.45 z m 2.5,-40.45 -3,-6 -3,6 z"
       style="fill:#000000;fill-opacity:1;fill-rule:nonzero;stroke:none"
       id="path158"
       inkscape:connector-curvature="0" /><path
       d="m 410.28,417.92 h 51.65 v -1 h -51.65 z m 50.65,2.5 6,-3 -6,-3 z"
       style="fill:#000000;fill-opacity:1;fill-rule:nonzero;stroke:none"
       id="path160"
       inkscape:connector-curvature="0" /><path
       d="m 298.88,504 v -41.45 h -1 V 504 Z m 2.5,-40.45 -3,-6 -3,6 z"
       style="fill:#000000;fill-opacity:1;fill-rule:nonzero;stroke:none"
       id="path162"
       inkscape:connector-curvature="0" /><path
       d="M 185.19,417.75 297.3,457.89 409.41,417.75 297.3,377.61 Z"
       style="fill:#ffffff;fill-opacity:1;fill-rule:evenodd;stroke:none"
       id="path164"
       inkscape:connector-curvature="0" /><path
       d="M 185.19,417.75 297.3,457.89 409.41,417.75 297.3,377.61 Z"
       style="fill:none;stroke:#000000;stroke-width:1.01999998;stroke-linecap:butt;stroke-linejoin:miter;stroke-miterlimit:10;stroke-dasharray:none;stroke-opacity:1"
       id="path166"
       inkscape:connector-curvature="0" /><g
       id="g168"><g
         id="g170"
         clip-path="url(#clipPath174)"><text
           transform="matrix(1,0,0,-1,241.72,412.04)"
           style="font-variant:normal;font-weight:normal;font-size:13.97999954px;writing-mode:lr-tb;fill:#000000;fill-opacity:1;fill-rule:nonzero;stroke:none"
           id="text178"><tspan
             x="0 13.98 27.959999 41.939999 55.961941 69.94194 83.921944 97.901939"
             y="0"
             sodipodi:role="line"
             id="tspan176">是否有人投罷工票</tspan></text>
</g></g><g
       id="g180"><g
         id="g182"
         clip-path="url(#clipPath186)" /></g><g
       id="g188"><g
         id="g190"
         clip-path="url(#clipPath194)" /></g><path
       d="m 298.88,376.14 v -41.5 h -1 v 41.5 z m 2.5,-40.5 -3,-6 -3,6 z"
       style="fill:#000000;fill-opacity:1;fill-rule:nonzero;stroke:none"
       id="path196"
       inkscape:connector-curvature="0" /><g
       id="g198"><g
         id="g200"
         clip-path="url(#clipPath204)"><text
           transform="matrix(1,0,0,-1,315.64,352.04)"
           style="font-variant:normal;font-weight:normal;font-size:13.97999954px;writing-mode:lr-tb;fill:#000000;fill-opacity:1;fill-rule:nonzero;stroke:none"
           id="text208"><tspan
             x="0 13.98 27.959999 41.939999 55.961941 69.94194"
             y="0"
             sodipodi:role="line"
             id="tspan206">是，全體員工</tspan></text>
</g></g><g
       id="g210"><g
         id="g212"
         clip-path="url(#clipPath216)"><text
           transform="matrix(1,0,0,-1,399.58,352.04)"
           style="font-variant:normal;font-weight:normal;font-size:13.97999954px;writing-mode:lr-tb;fill:#000000;fill-opacity:1;fill-rule:nonzero;stroke:none"
           id="text220"><tspan
             x="0 13.98 28.00194"
             y="0"
             sodipodi:role="line"
             id="tspan218">投罷工</tspan></text>
</g></g><g
       id="g222"><g
         id="g224"
         clip-path="url(#clipPath228)" /></g><path
       d="m 214.65,284.85 h 164.16 v 43.92 H 214.65 Z"
       style="fill:#ffffff;fill-opacity:1;fill-rule:evenodd;stroke:none"
       id="path230"
       inkscape:connector-curvature="0" /><path
       d="m 214.65,284.85 h 164.16 v 43.92 H 214.65 Z"
       style="fill:none;stroke:#000000;stroke-width:0.77999997;stroke-linecap:butt;stroke-linejoin:miter;stroke-miterlimit:10;stroke-dasharray:none;stroke-opacity:1"
       id="path232"
       inkscape:connector-curvature="0" /><g
       id="g234"><g
         id="g236"
         clip-path="url(#clipPath240)"><text
           transform="matrix(1,0,0,-1,240.7,301.64)"
           style="font-variant:normal;font-weight:normal;font-size:13.97999954px;writing-mode:lr-tb;fill:#000000;fill-opacity:1;fill-rule:nonzero;stroke:none"
           id="text244"><tspan
             x="0 13.98 27.959999 41.939999 55.961941 69.94194 83.921944 97.901939"
             y="0"
             sodipodi:role="line"
             id="tspan242">餐廳隔日停止運作</tspan></text>
</g></g><g
       id="g246"><g
         id="g248"
         clip-path="url(#clipPath252)" /></g><path
       d="m 201.03,595.11 h 192.36 v 61.5 H 201.03 Z"
       style="fill:#ffffff;fill-opacity:1;fill-rule:evenodd;stroke:none"
       id="path254"
       inkscape:connector-curvature="0" /><path
       d="m 201.03,595.11 h 192.36 v 61.5 H 201.03 Z"
       style="fill:none;stroke:#000000;stroke-width:0.77999997;stroke-linecap:butt;stroke-linejoin:miter;stroke-miterlimit:10;stroke-dasharray:none;stroke-opacity:1"
       id="path256"
       inkscape:connector-curvature="0" /><g
       id="g258"><g
         id="g260"
         clip-path="url(#clipPath264)"><text
           transform="matrix(1,0,0,-1,213.2,630.1)"
           style="font-variant:normal;font-weight:normal;font-size:13.97999954px;writing-mode:lr-tb;fill:#000000;fill-opacity:1;fill-rule:nonzero;stroke:none"
           id="text268"><tspan
             x="0 13.98 27.959999 41.939999"
             y="0"
             sodipodi:role="line"
             id="tspan266">決定是否</tspan></text>
</g></g><g
       id="g270"><g
         id="g272"
         clip-path="url(#clipPath276)"><text
           transform="matrix(1,0,0,-1,269.2,630.1)"
           style="font-variant:normal;font-weight:normal;font-size:13.97999954px;writing-mode:lr-tb;fill:#000000;fill-opacity:1;fill-rule:nonzero;stroke:none"
           id="text280"><tspan
             x="0 13.98 27.959999 41.939999"
             y="0"
             sodipodi:role="line"
             id="tspan278">（繼續）</tspan></text>
</g></g><g
       id="g282"><g
         id="g284"
         clip-path="url(#clipPath288)"><text
           transform="matrix(1,0,0,-1,325.18,630.1)"
           style="font-variant:normal;font-weight:normal;font-size:13.97999954px;writing-mode:lr-tb;fill:#000000;fill-opacity:1;fill-rule:nonzero;stroke:none"
           id="text292"><tspan
             x="0 13.98 27.959999 41.939999"
             y="0"
             sodipodi:role="line"
             id="tspan290">進行罷工</tspan></text>
</g></g><g
       id="g294"><g
         id="g296"
         clip-path="url(#clipPath300)" /></g><g
       id="g302"><g
         id="g304"
         clip-path="url(#clipPath308)"><text
           transform="matrix(1,0,0,-1,227.18,609.1)"
           style="font-variant:normal;font-weight:normal;font-size:13.97999954px;writing-mode:lr-tb;fill:#000000;fill-opacity:1;fill-rule:nonzero;stroke:none"
           id="text312"><tspan
             x="0 13.98 27.959999 41.939999 55.961941 69.94194 83.921944 97.901939 111.92388 125.90388"
             y="0"
             sodipodi:role="line"
             id="tspan310">若決議進行，列出訴求</tspan></text>
</g></g><g
       id="g314"><g
         id="g316"
         clip-path="url(#clipPath320)" /></g><g
       id="g322"
       transform="matrix(0.79689815,0,0,0.79689815,20.221307,88.614514)"><g
         id="g324"
         clip-path="url(#clipPath328)"><text
           transform="matrix(1,0,0,-1,123.62,381.62)"
           style="font-variant:normal;font-weight:normal;font-size:13.97999954px;writing-mode:lr-tb;fill:#000000;fill-opacity:1;fill-rule:nonzero;stroke:none"
           id="text332"><tspan
             x="0 13.98 27.959999 41.939999 55.961941 69.94194"
             y="0"
             sodipodi:role="line"
             id="tspan330">是，部分員工</tspan></text>
</g></g><g
       id="g334"><g
         id="g336"
         clip-path="url(#clipPath340)"><text
           transform="scale(1,-1)"
           style="font-variant:normal;font-weight:normal;font-size:11.14063549px;writing-mode:lr-tb;fill:#000000;fill-opacity:1;fill-rule:nonzero;stroke:none;stroke-width:0.79689813"
           id="text344"
           x="185.62549"
           y="-392.72681"><tspan
             x="185.62549 196.76611 207.94017"
             y="-392.72681"
             sodipodi:role="line"
             id="tspan342"
             style="stroke-width:0.79689813">投罷工</tspan></text>
</g></g><g
       id="g346"><g
         id="g348"
         clip-path="url(#clipPath352)" /></g><path
       d="M 186.35,418.64 H 120.5 v -1 h 65.85 z m -64.85,2.5 -6,-3 6,-3 z"
       style="fill:#000000;fill-opacity:1;fill-rule:nonzero;stroke:none"
       id="path354"
       inkscape:connector-curvature="0" /><path
       d="m 55.53,332.67 h 57.84 V 504.75 H 55.53 Z"
       style="fill:#ffffff;fill-opacity:1;fill-rule:evenodd;stroke:none"
       id="path356"
       inkscape:connector-curvature="0" /><path
       d="m 55.53,332.67 h 57.84 V 504.75 H 55.53 Z"
       style="fill:none;stroke:#000000;stroke-width:0.77999997;stroke-linecap:butt;stroke-linejoin:miter;stroke-miterlimit:10;stroke-dasharray:none;stroke-opacity:1"
       id="path358"
       inkscape:connector-curvature="0" /><g
       id="g360"><g
         id="g362"
         clip-path="url(#clipPath366)"><text
           transform="matrix(1,6.52e-7,6.52e-7,-1,85.989,485.76)"
           style="font-variant:normal;font-weight:normal;font-size:13.97999954px;writing-mode:lr-tb;fill:#000000;fill-opacity:1;fill-rule:nonzero;stroke:none"
           id="text382"><tspan
             x="0"
             y="0"
             id="tspan368">無</tspan><tspan
             x="0"
             y="13.98"
             id="tspan370">論</tspan><tspan
             x="0"
             y="27.959999"
             id="tspan372">該</tspan><tspan
             x="0"
             y="41.939999"
             id="tspan374">員</tspan><tspan
             x="0"
             y="55.98"
             id="tspan376">工</tspan><tspan
             x="0"
             y="69.959999"
             id="tspan378">是</tspan><tspan
             x="0"
             y="83.940002"
             id="tspan380">否</tspan></text>
</g></g><g
       id="g384"><g
         id="g386"
         clip-path="url(#clipPath390)"><text
           transform="matrix(1,6.52e-7,6.52e-7,-1,85.989,387.82)"
           style="font-variant:normal;font-weight:normal;font-size:13.97999954px;writing-mode:lr-tb;fill:#000000;fill-opacity:1;fill-rule:nonzero;stroke:none"
           id="text394"><tspan
             x="0"
             y="0"
             id="tspan392">投</tspan></text>
</g></g><g
       id="g396"><g
         id="g398"
         clip-path="url(#clipPath402)"><text
           transform="matrix(1,6.52e-7,6.52e-7,-1,85.989,373.78)"
           style="font-variant:normal;font-weight:normal;font-size:13.97999954px;writing-mode:lr-tb;fill:#000000;fill-opacity:1;fill-rule:nonzero;stroke:none"
           id="text410"><tspan
             x="0"
             y="0"
             id="tspan404">票</tspan><tspan
             x="0"
             y="13.98"
             id="tspan406">罷</tspan><tspan
             x="0"
             y="27.959999"
             id="tspan408">工</tspan></text>
</g></g><g
       id="g412"><g
         id="g414"
         clip-path="url(#clipPath418)" /></g><g
       id="g420"><g
         id="g422"
         clip-path="url(#clipPath426)"><text
           transform="matrix(1,6.52e-7,6.52e-7,-1,65.089,485.76)"
           style="font-variant:normal;font-weight:normal;font-size:13.97999954px;writing-mode:lr-tb;fill:#000000;fill-opacity:1;fill-rule:nonzero;stroke:none"
           id="text432"><tspan
             x="0"
             y="0"
             id="tspan428">員</tspan><tspan
             x="0"
             y="13.98"
             id="tspan430">工</tspan></text>
</g></g><g
       id="g434"><g
         id="g436"
         clip-path="url(#clipPath440)"><text
           transform="matrix(1,6.52e-7,6.52e-7,-1,65.089,457.8)"
           style="font-variant:normal;font-weight:normal;font-size:13.97999954px;writing-mode:lr-tb;fill:#000000;fill-opacity:1;fill-rule:nonzero;stroke:none"
           id="text444"><tspan
             x="0"
             y="0"
             id="tspan442">皆</tspan></text>
</g></g><g
       id="g446"><g
         id="g448"
         clip-path="url(#clipPath452)"><text
           transform="matrix(1,6.52e-7,6.52e-7,-1,65.089,443.82)"
           style="font-variant:normal;font-weight:normal;font-size:13.97999954px;writing-mode:lr-tb;fill:#000000;fill-opacity:1;fill-rule:nonzero;stroke:none"
           id="text462"><tspan
             x="0"
             y="0"
             id="tspan454">正</tspan><tspan
             x="0"
             y="14.04"
             id="tspan456">常</tspan><tspan
             x="0"
             y="28.02"
             id="tspan458">到</tspan><tspan
             x="0"
             y="42"
             id="tspan460">班</tspan></text>
</g></g><g
       id="g464"><g
         id="g466"
         clip-path="url(#clipPath470)" /></g><path
       d="m 298.88,285 v -41.5 h -1 V 285 Z m 2.5,-40.5 -3,-6 -3,6 z"
       style="fill:#000000;fill-opacity:1;fill-rule:nonzero;stroke:none"
       id="path472"
       inkscape:connector-curvature="0" /><path
       d="m 191.91,192.75 h 209.28 v 43.86 H 191.91 Z"
       style="fill:#ffffff;fill-opacity:1;fill-rule:evenodd;stroke:none"
       id="path474"
       inkscape:connector-curvature="0" /><path
       d="m 191.91,192.75 h 209.28 v 43.86 H 191.91 Z"
       style="fill:none;stroke:#000000;stroke-width:0.77999997;stroke-linecap:butt;stroke-linejoin:miter;stroke-miterlimit:10;stroke-dasharray:none;stroke-opacity:1"
       id="path476"
       inkscape:connector-curvature="0" /><g
       id="g478"><g
         id="g480"
         clip-path="url(#clipPath484)"><text
           transform="matrix(1,0,0,-1,205.58,209.54)"
           style="font-variant:normal;font-weight:normal;font-size:13.97999954px;writing-mode:lr-tb;fill:#000000;fill-opacity:1;fill-rule:nonzero;stroke:none"
           id="text488"><tspan
             x="0 13.98 27.959999 41.939999 55.961941 69.94194 83.921944 97.901939 111.92388 125.90388 139.88388 153.86388 167.88582"
             y="0"
             sodipodi:role="line"
             id="tspan486">工會代表與資方進行條件談判</tspan></text>
</g></g><g
       id="g490"><g
         id="g492"
         clip-path="url(#clipPath496)" /></g><path
       d="m 298.88,192.78 v -41.5 h -1 v 41.5 z m 2.5,-40.5 -3,-6 -3,6 z"
       style="fill:#000000;fill-opacity:1;fill-rule:nonzero;stroke:none"
       id="path498"
       inkscape:connector-curvature="0" /><path
       d="M 170.19,99 296.97,144.39 423.75,99 296.97,53.61 Z"
       style="fill:#ffffff;fill-opacity:1;fill-rule:evenodd;stroke:none"
       id="path500"
       inkscape:connector-curvature="0" /><path
       d="M 170.19,99 296.97,144.39 423.75,99 296.97,53.61 Z"
       style="fill:none;stroke:#000000;stroke-width:1.01999998;stroke-linecap:butt;stroke-linejoin:miter;stroke-miterlimit:10;stroke-dasharray:none;stroke-opacity:1"
       id="path502"
       inkscape:connector-curvature="0" /><g
       id="g504"><g
         id="g506"
         clip-path="url(#clipPath510)"><text
           transform="matrix(1,0,0,-1,213.68,94.74)"
           style="font-variant:normal;font-weight:normal;font-size:13.97999954px;writing-mode:lr-tb;fill:#000000;fill-opacity:1;fill-rule:nonzero;stroke:none"
           id="text514"><tspan
             x="0 13.98 27.959999 41.939999 55.961941"
             y="0"
             sodipodi:role="line"
             id="tspan512">資方是否願</tspan></text>
</g></g><g
       id="g516"><g
         id="g518"
         clip-path="url(#clipPath522)"><text
           transform="matrix(1,0,0,-1,283.66,94.74)"
           style="font-variant:normal;font-weight:normal;font-size:13.97999954px;writing-mode:lr-tb;fill:#000000;fill-opacity:1;fill-rule:nonzero;stroke:none"
           id="text526"><tspan
             x="0"
             y="0"
             id="tspan524">意</tspan></text>
</g></g><g
       id="g528"><g
         id="g530"
         clip-path="url(#clipPath534)"><text
           transform="matrix(1,0,0,-1,297.64,94.74)"
           style="font-variant:normal;font-weight:normal;font-size:13.97999954px;writing-mode:lr-tb;fill:#000000;fill-opacity:1;fill-rule:nonzero;stroke:none"
           id="text538"><tspan
             x="0 13.98 28.00194 41.981941 55.961941 69.94194"
             y="0"
             sodipodi:role="line"
             id="tspan536">滿足全部條件</tspan></text>
</g></g><g
       id="g540"><g
         id="g542"
         clip-path="url(#clipPath546)" /></g><path
       d="m 423.78,99.14 h 51.65 v -1 h -51.65 z m 50.65,2.5 6,-3 -6,-3 z"
       style="fill:#000000;fill-opacity:1;fill-rule:nonzero;stroke:none"
       id="path548"
       inkscape:connector-curvature="0" /><g
       id="g550"><g
         id="g552"
         clip-path="url(#clipPath556)"><text
           transform="matrix(1,0,0,-1,504.18,92.58)"
           style="font-variant:normal;font-weight:normal;font-size:13.97999954px;writing-mode:lr-tb;fill:#000000;fill-opacity:1;fill-rule:nonzero;stroke:none"
           id="text560"><tspan
             x="0 13.98 27.959999 41.939999"
             y="0"
             sodipodi:role="line"
             id="tspan558">罷工停止</tspan></text>
</g></g><g
       id="g562"><g
         id="g564"
         clip-path="url(#clipPath568)" /></g><g
       id="g570"><g
         id="g572"
         clip-path="url(#clipPath576)"><text
           transform="matrix(1,0,0,-1,442.26,107.82)"
           style="font-variant:normal;font-weight:normal;font-size:13.97999954px;writing-mode:lr-tb;fill:#000000;fill-opacity:1;fill-rule:nonzero;stroke:none"
           id="text580"><tspan
             x="0"
             y="0"
             id="tspan578">是</tspan></text>
</g></g><g
       id="g582"><g
         id="g584"
         clip-path="url(#clipPath588)" /></g><path
       d="M 171.03,98.64 H 17.28"
       style="fill:none;stroke:#000000;stroke-width:0.47999999;stroke-linecap:butt;stroke-linejoin:miter;stroke-miterlimit:10;stroke-dasharray:none;stroke-opacity:1"
       id="path590"
       inkscape:connector-curvature="0" /><path
       d="M 17.28,99.3 V 623.7"
       style="fill:none;stroke:#000000;stroke-width:0.47999999;stroke-linecap:butt;stroke-linejoin:miter;stroke-miterlimit:10;stroke-dasharray:none;stroke-opacity:1"
       id="path592"
       inkscape:connector-curvature="0" /><path
       d="m 17.28,624.14 h 178.75 v -1 H 17.28 Z m 177.75,2.5 6,-3 -6,-3 z"
       style="fill:#000000;fill-opacity:1;fill-rule:nonzero;stroke:none"
       id="path594"
       inkscape:connector-curvature="0" /><path
       d="m 35.31,309.08 c 0,7.2 5.834,13.03 13.03,13.03 h 52.12 c 7.2,0 13.03,-5.83 13.03,-13.03 V 150.94 c 0,-7.2 -5.83,-13.03 -13.03,-13.03 H 48.34 c -7.196,0 -13.03,5.83 -13.03,13.03 z"
       style="fill:#e7e6e6;fill-opacity:1;fill-rule:evenodd;stroke:none"
       id="path596"
       inkscape:connector-curvature="0" /><path
       d="m 35.31,309.08 c 0,7.2 5.834,13.03 13.03,13.03 h 52.12 c 7.2,0 13.03,-5.83 13.03,-13.03 V 150.94 c 0,-7.2 -5.83,-13.03 -13.03,-13.03 H 48.34 c -7.196,0 -13.03,5.83 -13.03,13.03 z"
       style="fill:none;stroke:#70ad47;stroke-width:1.01999998;stroke-linecap:butt;stroke-linejoin:miter;stroke-miterlimit:10;stroke-dasharray:none;stroke-opacity:1"
       id="path598"
       inkscape:connector-curvature="0" /><g
       id="g600"><g
         id="g602"
         clip-path="url(#clipPath606)"><text
           transform="matrix(1,6.52e-7,6.52e-7,-1,86.469,300.16)"
           style="font-variant:normal;font-weight:normal;font-size:13.97999954px;writing-mode:lr-tb;fill:#000000;fill-opacity:1;fill-rule:nonzero;stroke:none"
           id="text630"><tspan
             x="0"
             y="0"
             id="tspan608">若</tspan><tspan
             x="0"
             y="13.98"
             id="tspan610">為</tspan><tspan
             x="0"
             y="27.959999"
             id="tspan612">前</tspan><tspan
             x="0"
             y="41.939999"
             id="tspan614">日</tspan><tspan
             x="0"
             y="55.98"
             id="tspan616">罷</tspan><tspan
             x="0"
             y="69.959999"
             id="tspan618">工</tspan><tspan
             x="0"
             y="83.940002"
             id="tspan620">行</tspan><tspan
             x="0"
             y="97.919998"
             id="tspan622">動</tspan><tspan
             x="0"
             y="111.96"
             id="tspan624">之</tspan><tspan
             x="0"
             y="125.94"
             id="tspan626">延</tspan><tspan
             x="0"
             y="139.92"
             id="tspan628">續</tspan></text>
</g></g><g
       id="g632"><g
         id="g634"
         clip-path="url(#clipPath638)" /></g><g
       id="g640"><g
         id="g642"
         clip-path="url(#clipPath646)"><text
           transform="matrix(1,6.52e-7,6.52e-7,-1,65.449,300.16)"
           style="font-variant:normal;font-weight:normal;font-size:13.97999954px;writing-mode:lr-tb;fill:#000000;fill-opacity:1;fill-rule:nonzero;stroke:none"
           id="text672"><tspan
             x="0"
             y="0"
             id="tspan648">一</tspan><tspan
             x="0"
             y="13.98"
             id="tspan650">旦</tspan><tspan
             x="0"
             y="27.959999"
             id="tspan652">有</tspan><tspan
             x="0"
             y="41.939999"
             id="tspan654">任</tspan><tspan
             x="0"
             y="55.98"
             id="tspan656">何</tspan><tspan
             x="0"
             y="69.959999"
             id="tspan658">員</tspan><tspan
             x="0"
             y="83.940002"
             id="tspan660">工</tspan><tspan
             x="0"
             y="97.919998"
             id="tspan662">投</tspan><tspan
             x="0"
             y="111.96"
             id="tspan664">票</tspan><tspan
             x="0"
             y="125.94"
             id="tspan666">不</tspan><tspan
             x="0"
             y="139.92"
             id="tspan668">罷</tspan><tspan
             x="0"
             y="153.89999"
             id="tspan670">工</tspan></text>
</g></g><g
       id="g674"><g
         id="g676"
         clip-path="url(#clipPath680)" /></g><g
       id="g682"><g
         id="g684"
         clip-path="url(#clipPath688)"><text
           transform="matrix(1,6.52e-7,6.52e-7,-1,44.449,300.16)"
           style="font-variant:normal;font-weight:normal;font-size:13.97999954px;writing-mode:lr-tb;fill:#000000;fill-opacity:1;fill-rule:nonzero;stroke:none"
           id="text700"><tspan
             x="0"
             y="0"
             id="tspan690">則</tspan><tspan
             x="0"
             y="13.98"
             id="tspan692">罷</tspan><tspan
             x="0"
             y="27.959999"
             id="tspan694">工</tspan><tspan
             x="0"
             y="41.939999"
             id="tspan696">停</tspan><tspan
             x="0"
             y="55.98"
             id="tspan698">止</tspan></text>
</g></g><g
       id="g702"><g
         id="g704"
         clip-path="url(#clipPath708)" /></g></g></svg>